<?xml version="1.0" encoding="utf-8"?>
<!-- Generator: Adobe Illustrator 23.0.3, SVG Export Plug-In . SVG Version: 6.00 Build 0)  -->
<svg version="1.1" id="Layer_1" xmlns="http://www.w3.org/2000/svg" xmlns:xlink="http://www.w3.org/1999/xlink" x="0px" y="0px"
	 viewBox="0 0 700 479" style="enable-background:new 0 0 700 479;" xml:space="preserve">
<style type="text/css">
	.st0{fill:#FF4246;}
	.st1{clip-path:url(#SVGID_2_);fill:#121C27;}
	.st2{fill:#121C27;}
	.st3{clip-path:url(#SVGID_4_);fill:#121C27;}
</style>
<polygon class="st0" points="328.6,2.6 252.2,135 278.1,139.8 343,27.4 360.8,27.4 425.9,140.2 452,135.8 375.1,2.6 "/>
<polygon class="st0" points="596.2,435.2 587.3,450.6 116.4,450.6 107.5,435.2 134.4,388.6 104,391.6 78.9,435.2 102.1,475.4 
	601.6,475.4 624.9,435.2 599.1,390.5 568.8,387.8 "/>
<g>
	<defs>
		<rect id="SVGID_1_" x="3.2" y="2.6" width="694.8" height="472.9"/>
	</defs>
	<clipPath id="SVGID_2_">
		<use xlink:href="#SVGID_1_"  style="overflow:visible;"/>
	</clipPath>
	<path class="st1" d="M82.8,316.9c0,0,1.8,0,2.1-0.3c4.2-2.4,13.1-10.1,13.1-13.7v-89.7c0,0,0-0.9-0.3-1.5
		c-3.6-6-9.5-11.3-13.1-13.1c-0.3-0.3-2.1-0.3-2.7-0.3H34.5v118.6H82.8z M124.8,320.4c-3.6,5.4-15.5,17.3-22.1,20.9
		c-4.8,2.7-11.6,5.4-17.9,5.4H3.2V168.4h81.7c5.7,0,13.1,1.8,18.2,5.1c6.6,3.9,17.9,16.7,21.5,21.8c3.9,5.4,4.8,11.3,4.8,17v91.2
		C129.3,308.8,128.4,315.1,124.8,320.4"/>
</g>
<rect x="171" y="168.4" class="st2" width="31.3" height="178.3"/>
<g>
	<defs>
		<rect id="SVGID_3_" x="3.2" y="2.6" width="694.8" height="472.9"/>
	</defs>
	<clipPath id="SVGID_4_">
		<use xlink:href="#SVGID_3_"  style="overflow:visible;"/>
	</clipPath>
	<path class="st3" d="M365.4,323.4c-7.8,10.4-21.2,24.7-37.9,24.7h-37.3c-6.6,0-13.7-2.4-18.5-5.4c-6.3-3.6-18.2-15.8-21.8-21.2
		c-3.6-5.4-4.8-11.3-4.8-17v-93.9c0-5.7,1.2-11.3,4.8-16.7c3.6-5.1,15.5-17.9,21.8-21.5c4.8-2.7,11.9-5.4,18.5-5.4h37.3
		c16.7,0,30.1,14.6,37.9,24.7c2.4,3.3,3.6,5.7,6.3,10.4l-30.4,8.6c0,0-8.9-11-13.4-13.7c-0.3-0.3-0.9-0.3-1.2-0.3h-35.2
		c-0.6,0-1.2,0.3-1.2,0.3c-3.9,2.1-10.4,8.3-13.4,13.1c-0.3,0.6-0.3,2.7-0.3,3.3v90.6c0,3.6,9.2,11.3,13.7,13.7
		c0.3,0.3,1.8,0.3,2.1,0.3h34c0.3,0,0.9,0,1.5-0.3c6.3-3,13.4-14,13.4-14l30.4,8C369.2,317.4,367.8,320.1,365.4,323.4"/>
	<path class="st3" d="M426.8,304c0,0,0,0.9,0.3,1.2c3.6,5.4,9.8,11,13.1,12.8c0.6,0.3,1.2,0.3,1.5,0.3h42.9c0,0,0.9,0,1.5-0.3
		c3.3-1.8,9.5-7.5,13.1-12.8c0.3-0.6,0.3-1.2,0.3-1.2v-92.1c0,0,0-1.2-0.3-1.5c-3.6-5.4-9.8-11.3-13.1-13.1
		c-0.6-0.3-1.2-0.3-1.5-0.3h-42.9c0,0-1.2,0-1.5,0.3c-3.3,1.8-9.5,7.8-13.1,13.1c-0.3,0.6-0.3,1.5-0.3,1.5V304z M526,321.3
		c-3.9,5.1-15.5,17.9-21.8,21.5c-4.8,3-12.2,5.4-18.5,5.4h-45.3c-6.6,0-13.7-2.4-18.5-5.4c-6.3-3.6-18.2-16.4-21.8-21.5
		c-3.6-5.4-4.8-11.3-4.8-17V211c0-5.7,1.2-11.6,4.8-17c3.6-5.1,15.5-17.9,21.8-21.5c4.8-3,11.9-5.4,18.5-5.4h45.3
		c6.3,0,13.7,2.4,18.5,5.4c6.3,3.6,17.9,16.4,21.8,21.5c3.6,5.4,4.8,11.3,4.8,17v93.3C530.8,310,529.6,316,526,321.3"/>
	<path class="st3" d="M693.2,321.3c-3.6,5.4-15.5,17.9-21.8,21.5c-4.8,2.7-12.2,5.4-18.5,5.4h-51.9c-17.6,0-30.1-14.3-37.9-24.7
		c-2.4-3.3-3-4.8-5.4-9.2l29.5-9.8c0,0,6,8.3,13.1,13.7c0,0,0.6,0.3,2.1,0.3h48.9c1.2,0,1.8-0.3,1.8-0.3
		c4.5-2.4,13.4-11.3,13.4-13.7v-17.6c0-2.7-2.1-4.8-3.6-5.1l-77.5-22.1c-15.2-4.2-23.3-18.8-23.3-32.5V211c0-5.1,0.9-11.6,4.5-17
		c3.6-5.4,15.8-17.9,22.1-21.5c4.8-2.7,11.9-5.4,18.5-5.4h44.1c17.9,0,30.1,14.6,37.9,24.7c2.4,3.3,3.9,6,6,10.4l-30.1,8.6
		c0,0-6.9-9.8-13.1-13.7c0,0-0.3-0.3-1.8-0.3h-42c-1.2,0-1.8,0.3-1.8,0.3c-4.8,2.4-12.8,10.7-12.8,13.1v14.9c0,2.7,1.8,4.8,3.3,5.1
		l77.8,22.7c15.2,4.2,23.3,19.1,23.3,32.5v18.8C698,309.4,697.1,316,693.2,321.3"/>
</g>
</svg>
