<svg width="5545" height="1200" viewBox="0 0 5545 1200" fill="none" xmlns="http://www.w3.org/2000/svg">
<g clip-path="url(#clip0_129_4852)">
<g clip-path="url(#clip1_129_4852)">
<path d="M394.743 1188.17C364.871 1217.97 315.747 1184.81 332.258 1145.99L594.52 529.321C600.547 515.151 614.463 505.95 629.869 505.95L985.699 505.95C1019.93 505.95 1037.06 547.333 1012.83 571.506L394.743 1188.17Z" fill="url(#paint0_linear_129_4852)"/>
<path d="M629.257 11.5491C659.128 -18.2537 708.253 14.9106 691.742 53.7334L429.479 670.398C423.453 684.569 409.537 693.77 394.13 693.77H38.301C4.06556 693.77 -13.0641 652.387 11.1651 628.214L629.257 11.5491Z" fill="url(#paint1_linear_129_4852)"/>
<path d="M985.698 505.95C1019.93 505.95 1037.06 547.332 1012.83 571.506L815.271 768.611C730.957 724.104 629.891 702.269 524.01 695.112L594.52 529.321C600.547 515.151 614.462 505.95 629.869 505.95H985.698Z" fill="white" fill-opacity="0.3" style="mix-blend-mode:overlay"/>
<path d="M429.479 670.398C424.564 681.955 414.402 690.205 402.463 692.856C393.665 693.084 384.867 693.39 376.071 693.77H38.3007C4.06552 693.769 -13.0639 652.388 11.1649 628.214L90.66 548.902C255.632 455.339 408.559 416.279 541.427 407.169L429.479 670.398Z" fill="white" fill-opacity="0.3" style="mix-blend-mode:overlay"/>
</g>
<path fill-rule="evenodd" clip-rule="evenodd" d="M5273.78 503.409C5291.66 512.678 5319.45 522.097 5357.16 531.679C5395.49 541.263 5427.12 551.176 5452.04 561.388C5476.96 571.615 5498.52 587.427 5516.73 608.825C5534.94 630.237 5544.36 658.509 5544.1 693.638C5544.1 724.304 5536.52 751.782 5519.6 776.054C5502.67 800.342 5478.39 819.344 5446.77 833.075C5415.14 846.806 5378.24 853.679 5336.07 853.679C5292.62 853.679 5253.66 845.848 5219.15 830.2C5184.65 814.553 5157.34 793.303 5137.21 766.47C5122.64 747.042 5112.84 726.106 5107.82 703.663C5104.79 690.134 5115.38 677.347 5129.24 677.347H5221.98C5231.36 677.347 5239.64 683.356 5242.67 692.237C5247.42 706.164 5256.35 718.126 5269.47 728.138C5287.03 741.554 5308.91 748.263 5335.12 748.263C5360.66 748.263 5380.64 743.157 5395.01 732.929C5409.39 722.717 5416.58 709.615 5416.58 693.638C5416.58 676.388 5407.79 663.45 5390.22 654.825C5372.64 646.2 5344.7 636.782 5306.36 626.554C5266.74 616.972 5234.32 607.073 5209.09 596.845C5183.84 586.633 5162.13 570.971 5143.92 549.888C5125.71 528.804 5116.61 500.384 5116.61 464.597C5116.61 435.217 5125.07 408.383 5142 384.095C5158.93 359.823 5183.22 340.657 5214.84 326.597C5246.47 312.551 5283.68 305.513 5326.49 305.513C5389.74 305.513 5440.21 321.325 5477.91 352.95C5509.28 379.267 5528.93 413.217 5536.85 454.798C5539.42 468.319 5529.12 480.888 5515.36 480.888H5429.81C5420.03 480.888 5411.58 474.338 5408.79 464.958C5404.7 451.175 5396.91 439.715 5385.43 430.575C5369.77 418.116 5348.85 411.888 5322.66 411.888C5298.37 411.888 5279.68 416.365 5266.59 425.304C5253.49 434.259 5246.95 446.717 5246.95 462.679C5246.95 480.574 5255.89 494.155 5273.78 503.409ZM5004.8 493.345H4904.29C4895.83 493.345 4888.06 488.477 4884.53 480.778C4876.7 463.671 4865.41 449.813 4850.66 439.2C4832.45 426.112 4809.93 419.554 4783.09 419.554C4744.76 419.554 4714.41 433.45 4692.05 461.241C4669.68 489.033 4658.51 528.489 4658.51 579.595C4658.51 630.073 4669.68 669.2 4692.05 696.991C4714.41 724.783 4744.76 738.679 4783.09 738.679C4832.49 738.679 4866.3 718.587 4884.52 678.392C4888.01 670.687 4895.82 665.847 4904.28 665.847H5004.48C5019.7 665.847 5030.31 681.046 5025.01 695.318C5008.72 739.175 4982.72 775.035 4946.98 802.888C4903.52 836.759 4849.22 853.679 4784.05 853.679C4732.93 853.679 4687.57 842.344 4647.96 819.659C4608.34 796.988 4577.36 765.034 4555 723.825C4532.63 682.617 4521.46 634.55 4521.46 579.595C4521.46 524.656 4532.63 476.575 4555 435.366C4577.36 394.158 4608.34 362.219 4647.96 339.534C4687.57 316.863 4732.93 305.513 4784.05 305.513C4849.85 305.513 4904.33 321.968 4947.46 354.866C4983.22 382.158 5009.2 418.552 5025.41 464.064C5030.49 478.324 5019.94 493.345 5004.8 493.345ZM4401.84 845.054H4311.4C4299.32 845.054 4289.53 835.263 4289.53 823.187V336.003C4289.53 323.927 4299.32 314.138 4311.4 314.138H4401.84C4413.91 314.138 4423.71 323.927 4423.71 336.003V823.187C4423.71 835.263 4413.91 845.054 4401.84 845.054ZM4388.97 235.245H4323.65C4292.41 235.245 4277.17 197.12 4299.81 175.593L4365.13 113.458C4387.16 92.5061 4423.56 108.118 4423.56 138.519V200.655C4423.56 219.758 4408.08 235.245 4388.97 235.245ZM4170.87 845.054H4108.4C3995.31 845.054 3938.77 790.114 3938.77 680.22V446.212C3938.77 434.135 3928.98 424.345 3916.9 424.345H3897.38C3885.31 424.345 3875.52 414.557 3875.52 402.48V336.003C3875.52 323.927 3885.31 314.138 3897.38 314.138H3929.89C3935.59 314.138 3941.05 311.92 3945.13 307.954L4036.79 218.898C4050.66 205.428 4073.9 215.251 4073.9 234.581V292.271C4073.9 304.347 4083.69 314.138 4095.77 314.138H4170.87C4182.95 314.138 4192.74 323.927 4192.74 336.003V402.48C4192.74 414.557 4182.95 424.345 4170.87 424.345H4095.77C4083.69 424.345 4073.9 434.135 4073.9 446.212V681.179C4073.9 699.074 4078.21 712.01 4086.84 719.991C4095.46 727.987 4109.99 731.97 4130.44 731.97H4170.87C4182.95 731.97 4192.74 741.761 4192.74 753.837V823.187C4192.74 835.263 4182.95 845.054 4170.87 845.054ZM3833.05 344.478L3522.72 1082.75C3519.3 1090.86 3511.36 1096.14 3502.56 1096.14H3407.64C3391.89 1096.14 3381.31 1079.99 3387.59 1065.55L3485.6 840.118C3487.96 834.697 3488.02 828.552 3485.78 823.085L3288.94 344.319C3283.03 329.929 3293.61 314.138 3309.17 314.138H3411.77C3420.92 314.138 3429.1 319.838 3432.28 328.425L3543.68 629.89C3550.7 648.894 3577.56 648.956 3584.66 629.984L3697.69 328.331C3700.89 319.794 3709.05 314.138 3718.17 314.138H3812.89C3828.53 314.138 3839.11 330.067 3833.05 344.478ZM3183.75 845.054H3093.31C3081.23 845.054 3071.44 835.263 3071.44 823.187V279.536C3071.44 273.749 3073.74 268.198 3077.82 264.099L3168.26 173.366C3182.02 159.556 3205.61 169.304 3205.61 188.802V823.187C3205.61 835.263 3195.82 845.054 3183.75 845.054ZM2918.28 845.054H2826.88C2814.8 845.054 2805.01 835.263 2805.01 823.187V822.587C2805.01 804.059 2783.59 794.126 2769.19 805.786C2758.54 814.405 2746.68 822.223 2733.62 829.241C2703.26 845.533 2668.28 853.679 2628.67 853.679C2583.94 853.679 2543.21 842.179 2506.48 819.179C2469.73 796.179 2440.67 763.761 2419.27 721.909C2397.86 680.071 2387.16 631.99 2387.16 577.679C2387.16 524.013 2397.86 476.426 2419.27 434.888C2440.67 393.365 2469.73 361.426 2506.48 339.054C2543.21 316.699 2584.26 305.513 2629.63 305.513C2669.24 305.513 2703.91 313.509 2733.62 329.472C2746.67 336.494 2758.59 344.318 2769.36 352.943C2783.75 364.457 2805.01 354.427 2805.01 336.003C2805.01 323.927 2814.8 314.138 2826.88 314.138H2918.28C2930.35 314.138 2940.15 323.927 2940.15 336.003V823.187C2940.15 835.263 2930.35 845.054 2918.28 845.054ZM2785.85 495.741C2773.06 472.427 2755.81 454.533 2734.09 442.075C2712.37 429.616 2689.05 423.388 2664.13 423.388C2639.22 423.388 2616.21 429.466 2595.13 441.595C2574.05 453.739 2556.95 471.469 2543.86 494.784C2530.76 518.113 2524.21 545.74 2524.21 577.679C2524.21 609.634 2530.76 637.576 2543.86 661.534C2556.95 685.492 2574.2 703.865 2595.61 716.638C2617.01 729.426 2639.85 735.804 2664.13 735.804C2689.05 735.804 2712.37 729.574 2734.09 717.116C2755.81 704.658 2773.06 686.779 2785.85 663.45C2798.62 640.135 2805.01 612.178 2805.01 579.595C2805.01 547.012 2798.62 519.07 2785.85 495.741ZM2303 845.054H2240.53C2127.45 845.054 2070.9 790.114 2070.9 680.22V446.212C2070.9 434.135 2061.11 424.345 2049.03 424.345H2029.52C2017.44 424.345 2007.65 414.557 2007.65 402.48V336.003C2007.65 323.927 2017.44 314.138 2029.52 314.138H2062.03C2067.72 314.138 2073.18 311.92 2077.27 307.954L2168.93 218.898C2182.79 205.428 2206.03 215.251 2206.03 234.581V292.271C2206.03 304.347 2215.82 314.138 2227.9 314.138H2303C2315.08 314.138 2324.87 323.927 2324.87 336.003V402.48C2324.87 414.557 2315.08 424.345 2303 424.345H2227.9C2215.82 424.345 2206.03 434.135 2206.03 446.212V681.179C2206.03 699.074 2210.34 712.01 2218.97 719.991C2227.59 727.987 2242.12 731.97 2262.58 731.97H2303C2315.08 731.97 2324.87 741.761 2324.87 753.837V823.187C2324.87 835.263 2315.08 845.054 2303 845.054ZM1928.94 619.845H1585.62C1571.64 619.845 1561.01 632.84 1564.25 646.435C1570.44 672.348 1582.47 693.518 1600.34 709.929C1623.97 731.657 1653.05 742.513 1687.55 742.513C1733.24 742.513 1766.84 724.532 1788.36 688.56C1792.23 682.093 1799.38 678.304 1806.91 678.304H1907.23C1922.99 678.304 1933.72 694.553 1927.29 708.946C1910.51 746.462 1884.9 778.253 1850.48 804.325C1807.02 837.238 1753.68 853.679 1690.43 853.679C1639.3 853.679 1593.47 842.344 1552.9 819.659C1512.32 796.988 1480.69 764.883 1458.02 723.345C1435.34 681.823 1424 633.906 1424 579.595C1424 524.656 1435.17 476.426 1457.54 434.888C1479.9 393.365 1511.21 361.426 1551.46 339.054C1591.71 316.699 1638.03 305.513 1690.43 305.513C1740.89 305.513 1786.1 316.384 1826.04 338.097C1865.96 359.824 1896.96 390.654 1919 430.575C1941.04 470.51 1952.06 516.346 1952.06 568.095C1952.06 579.448 1951.61 590.129 1950.71 600.136C1949.71 611.338 1940.19 619.845 1928.94 619.845ZM1809.88 502.816C1804.7 480.562 1793.31 461.914 1775.72 446.866C1751.43 426.112 1721.72 415.72 1686.59 415.72C1653.37 415.72 1625.41 425.784 1602.74 445.909C1586.49 460.324 1574.75 478.758 1567.52 501.204C1562.97 515.307 1573.54 529.763 1588.36 529.763C1637.78 529.763 1741.31 529.763 1788.6 529.763C1802.72 529.763 1813.08 516.571 1809.88 502.816Z" fill="#2B2F38"/>
</g>
<defs>
<linearGradient id="paint0_linear_129_4852" x1="666.791" y1="1327.55" x2="666.791" y2="505.95" gradientUnits="userSpaceOnUse">
<stop stop-color="#188CB3"/>
<stop offset="1" stop-color="#22ABD9"/>
</linearGradient>
<linearGradient id="paint1_linear_129_4852" x1="310.329" y1="-40.3783" x2="310.329" y2="693.77" gradientUnits="userSpaceOnUse">
<stop stop-color="#05659D"/>
<stop offset="1" stop-color="#024871"/>
</linearGradient>
<clipPath id="clip0_129_4852">
<rect width="5544.1" height="1200" fill="white"/>
</clipPath>
<clipPath id="clip1_129_4852">
<rect width="1024" height="1200" fill="white"/>
</clipPath>
</defs>
</svg>
