<?xml version="1.0" encoding="UTF-8" standalone="no"?><!DOCTYPE svg PUBLIC "-//W3C//DTD SVG 1.1//EN" "http://www.w3.org/Graphics/SVG/1.1/DTD/svg11.dtd"><svg width="100%" height="100%" viewBox="0 0 759 383" version="1.1" xmlns="http://www.w3.org/2000/svg" xmlns:xlink="http://www.w3.org/1999/xlink" xml:space="preserve" xmlns:serif="http://www.serif.com/" style="fill-rule:evenodd;clip-rule:evenodd;stroke-linejoin:round;stroke-miterlimit:2;"><path d="M341.25,84.583c0,-28.75 14.583,-54.166 36.667,-69.583c-13.75,-9.583 -30.417,-15 -48.334,-15c-46.666,0 -84.583,37.917 -85,84.583l0,150l73.334,0l-0,-149.583c-0,-6.25 5,-11.667 11.666,-11.667c6.667,0 11.667,5 11.667,11.667l0,-0.417Z" style="fill:#e6007e;fill-rule:nonzero;"/><path d="M511.25,84.583c0,-46.666 -38.333,-84.583 -85,-84.583c-46.667,0 -84.583,37.917 -85,84.583l0,150l73.333,0l0,-149.583c0,-4.583 2.5,-8.75 6.667,-10.417c8.333,-3.75 16.667,2.5 16.667,10.417l-0,149.583l73.333,0l0,-150Z" style="fill:url(#_Linear1);fill-rule:nonzero;"/><path d="M47.083,329.167c-6.666,-0 -11.666,2.916 -14.583,7.916c-2.917,-5 -4.583,-7.916 -14.583,-7.916c-10,-0 -17.917,5.833 -17.917,19.166l0,32.917l10,0l0,-32.917c0,-7.083 3.75,-10 8.75,-10c5,0 8.75,2.917 8.75,10l0,32.917l10,0l0,-32.917c0,-7.083 3.75,-10 8.75,-10c5,0 8.75,2.917 8.75,10l0,32.917l10,0l0,-32.917c0,-12.916 -7.917,-19.166 -17.917,-19.166Zm61.667,-0.417c-14.583,0 -22.5,8.75 -22.5,22.5l0,30l10,0l0,-15.417l25,0l0,15.417l10,0l0,-30c0,-13.75 -7.917,-22.5 -22.5,-22.5Zm12.5,27.917l-25,-0l0,-5.417c0,-8.333 4.167,-12.917 12.5,-12.917c8.333,0 12.5,4.584 12.5,12.917l0,5.417Zm32.083,-27.5l10,-0l0,52.083l-10,0l0,-52.083Zm66.25,25.416c4.167,-2.5 6.667,-3.75 6.667,-11.666c0,-7.917 -5,-13.75 -15,-13.75l-25,-0l0,52.5l27.083,-0c10,-0 15.417,-7.917 15.417,-14.167c0,-6.25 -3.333,-10.833 -9.167,-12.917Zm-22.916,-15.833l13.333,-0c4.583,-0 6.25,2.5 6.25,5.833c0,3.334 -2.083,5.834 -6.25,5.834l-13.333,-0l-0,-11.667Zm15,33.333l-15,0l-0,-12.5l15,0c4.166,0 6.666,2.917 6.666,6.25c0,3.334 -2.083,6.25 -6.666,6.25Zm60.833,-43.333c-15.833,-0 -27.083,11.25 -27.083,26.667c-0,15.416 11.25,26.666 27.083,26.666c15.833,0 27.083,-11.25 27.083,-26.666c0,-15.417 -11.25,-26.667 -27.083,-26.667Zm0,44.167c-10,-0 -17.083,-7.5 -17.083,-17.5c-0,-10 7.083,-17.084 17.083,-17.084c10,0 17.083,7.084 17.083,17.084c0,10 -7.083,17.5 -17.083,17.5Zm89.167,-26.667c-0,-10 -5.834,-17.083 -19.167,-17.083l-21.667,-0l0,52.083l10,-0l0,-17.5l9.584,-0l11.25,17.5l12.083,-0l-12.917,-18.75c7.084,-2.5 10.834,-6.25 10.834,-16.25Zm-18.75,7.917l-11.667,-0l-0,-15.417l11.667,-0c6.666,-0 8.75,3.333 8.75,7.917c-0,4.583 -2.084,7.916 -8.75,7.916l-0,-0.416Zm60.833,-25c-14.167,-0 -22.083,7.916 -22.083,21.25l-0,30.833l10,-0l-0,-30.833c-0,-7.5 4.166,-12.084 12.083,-12.084c7.917,0 12.083,4.584 12.083,12.084l0,30.833l10,-0l0,-30.833c0,-12.917 -7.916,-21.25 -22.083,-21.25Zm98.333,33.333c0,7.083 -3.75,10 -8.75,10c-5,-0 -8.75,-2.917 -8.75,-10l0,-32.917l-10,0l0,32.917c0,7.083 -3.75,10 -8.75,10c-5,-0 -8.75,-2.917 -8.75,-10l0,-32.917l-10,0l0,32.917c0,12.917 7.917,19.167 17.917,19.167c10,-0 11.667,-2.917 14.583,-7.917c2.917,5 4.584,7.917 14.584,7.917c10,-0 17.916,-5.834 17.916,-19.167l0,-32.917l-10,0l0,32.917Zm55.834,-33.75c-15.834,-0 -27.084,11.25 -27.084,26.667c0,15.416 11.25,26.666 27.084,26.666c15.833,0 27.083,-11.25 27.083,-26.666c0,-15.417 -11.25,-26.667 -27.083,-26.667Zm-0,44.167c-10,-0 -17.084,-7.084 -17.084,-17.5c0,-10.417 7.084,-17.5 17.084,-17.5c10,-0 17.083,7.5 17.083,17.5c-0,10 -7.083,17.5 -17.083,17.5Zm58.333,-43.75l-10.417,-0l0,52.5l37.5,-0l0,-9.584l-27.083,0l0,-42.916Zm47.5,-0l0,52.5l10,-0l0,-22.084l22.917,0l-0,-9.166l-22.917,-0l0,-11.667l27.5,-0l0,-9.583l-37.917,-0l0.417,-0Zm94.583,9.583l0,-9.583l-37.916,-0l0.416,-0l0,52.5l10,-0l0,-22.084l22.917,0l0,-9.166l-22.917,-0l0,-11.667l27.5,-0Z" style="fill-rule:nonzero;"/><defs><linearGradient id="_Linear1" x1="0" y1="0" x2="1" y2="0" gradientUnits="userSpaceOnUse" gradientTransform="matrix(229.583,46.25,-46.25,229.583,341.25,107.917)"><stop offset="0" style="stop-color:#008cff;stop-opacity:1"/><stop offset="0.2" style="stop-color:#0086ff;stop-opacity:1"/><stop offset="0.5" style="stop-color:#0078ff;stop-opacity:1"/><stop offset="0.7" style="stop-color:#0060ff;stop-opacity:1"/><stop offset="0.8" style="stop-color:#005fff;stop-opacity:1"/><stop offset="0.8" style="stop-color:#0056ff;stop-opacity:1"/><stop offset="0.9" style="stop-color:#003eff;stop-opacity:1"/><stop offset="1" style="stop-color:#0030ff;stop-opacity:1"/></linearGradient></defs></svg>