<svg width="468" height="149" viewBox="0 0 468 149" fill="none" xmlns="http://www.w3.org/2000/svg">
<g clip-path="url(#clip0_115_1365)">
<path fill-rule="evenodd" clip-rule="evenodd" d="M86.0927 77.4991C86.0927 65.4477 92.4453 54.8654 104.015 54.8654C105.833 54.8654 107.984 55.2599 109.799 55.6502C108.894 69.5595 98.6832 86.311 90.86 86.311C87.7941 86.311 86.0941 83.0815 86.0941 77.4977L86.0927 77.4991ZM120.691 47.0291C115.925 45.7537 110.594 44.8728 104.584 44.8728C85.869 44.8728 70.4405 56.8252 70.4405 78.9654C70.4405 92.0928 77.5872 98.0711 87.4558 98.0711C96.9832 98.0711 105.718 91.8991 110.596 77.5938H111.05C109.235 83.6669 108.1 90.5261 107.306 97.087H127.951L128.977 87.0958H121.826L124.665 57.2155C125.005 53.8855 125.57 50.3576 126.477 47.0291H120.695H120.691Z" fill="#003D72"/>
<path d="M172.562 97.0884H190.257L191.279 87.0986H183.452L172.562 71.426L194.114 55.2613L195.136 45.8513H171.771L170.746 55.2613H178.688L167.344 64.0733L154.639 45.8513H136.943L135.923 55.8453H143.749L154.867 71.8163L133.545 87.6854L132.523 97.0884H156.573L157.589 87.6854H148.968L160.083 79.1619L172.562 97.0884Z" fill="#003D72"/>
<path d="M35.1757 122.858L40.9578 120.505C53.8923 115.214 60.9243 107.378 62.8522 88.6653L67.1609 45.8513H45.1561L44.1341 55.8467H51.2808L48.331 86.1173C46.8575 100.813 43.4533 109.24 29.9568 114.039L35.1757 122.858Z" fill="#003D72"/>
<path fill-rule="evenodd" clip-rule="evenodd" d="M198.197 43.9056C198.197 45.8187 199.72 47.0531 201.426 47.0531C203.132 47.0531 204.653 45.8201 204.653 43.9056C204.653 41.9911 203.132 40.7722 201.426 40.7722C199.72 40.7722 198.197 41.9981 198.197 43.9056ZM199.055 43.9056C199.055 42.4775 200.104 41.4453 201.426 41.4453C202.728 41.4453 203.795 42.4761 203.795 43.9056C203.795 45.3351 202.73 46.3815 201.426 46.3815C200.104 46.3815 199.055 45.3366 199.055 43.9056ZM200.173 45.6575H200.872V44.1559H201.31L202.163 45.6575H202.894L201.954 44.1234C202.476 44.0809 202.88 43.8278 202.88 43.1859C202.88 42.4167 202.384 42.141 201.5 42.141H200.172V45.6589L200.173 45.6575ZM200.872 42.6853H201.461C201.781 42.6853 202.185 42.7461 202.185 43.1251C202.185 43.5535 201.89 43.6115 201.492 43.6115H200.874V42.6868L200.872 42.6853Z" fill="white"/>
<path d="M220.501 45.9489H234.832L226.373 85.4697H242.002L239.564 97.07H209.604L220.501 45.9489Z" fill="#03D4D9"/>
<path d="M273.881 44.9478C292.301 44.9478 290.01 55.6884 286.638 71.5094C283.128 87.8325 280.982 98.0711 262.561 98.0711C244.14 98.0711 246.293 87.8325 249.805 71.5094C253.171 55.6884 255.465 44.9478 273.881 44.9478ZM271.876 54.396C268.795 54.396 267.722 56.5438 264.568 71.5094C261.341 86.4708 261.487 88.6201 264.568 88.6201C267.65 88.6201 268.655 86.4722 271.876 71.5094C275.033 56.5438 274.961 54.396 271.876 54.396Z" fill="#03D4D9"/>
<path d="M322.469 45.9489H335.94L325.052 97.07H309.712L308.491 65.5651H308.353L301.611 97.07H288.567L299.462 45.9489H315.017L315.659 77.1654H315.804L322.469 45.9489Z" fill="#03D4D9"/>
<path d="M344.606 45.9489H365.246C371.624 45.9489 375.208 48.4558 376.643 52.6045C378.001 56.6159 377.93 59.335 375.352 71.5094C372.988 82.6771 369.477 97.07 354.566 97.07H333.709L344.606 45.9489ZM350.267 86.7593H353.203C356.787 86.7593 358.15 82.8242 359.011 78.9555L362.166 64.0634C363.239 58.9094 363.239 56.2596 358.793 56.2596H356.719L350.269 86.7579L350.267 86.7593Z" fill="#03D4D9"/>
<path d="M405.94 44.9478C424.361 44.9478 422.068 55.6884 418.699 71.5094C415.185 87.8325 413.04 98.0711 394.62 98.0711C376.199 98.0711 378.352 87.8325 381.863 71.5094C385.228 55.6884 387.525 44.9478 405.94 44.9478ZM403.933 54.396C400.855 54.396 399.78 56.5438 396.627 71.5094C393.401 86.4708 393.548 88.6201 396.627 88.6201C399.705 88.6201 400.713 86.4722 403.933 71.5094C407.093 56.5438 407.019 54.396 403.933 54.396Z" fill="#03D4D9"/>
<path d="M454.528 45.9489H467.999L457.104 97.07H441.77L440.551 65.5651H440.407L433.669 97.07H420.627L431.515 45.9489H447.07L447.718 77.1654H447.857L454.529 45.9489H454.528Z" fill="#03D4D9"/>
<path d="M94.6208 133.914C94.8685 131.966 95.5027 130.149 96.4454 128.535L70.5792 109.517C68.7278 108.16 70.7661 105.388 72.6146 106.746L98.5204 125.789C101.424 122.776 105.586 121.051 109.972 121.47C117.482 122.18 122.793 128.906 121.83 136.492C120.865 144.078 113.996 149.65 106.477 148.938C98.9663 148.225 93.6555 141.5 94.6208 133.914Z" fill="#03D4D9"/>
<path d="M77.0819 36.8414L120.742 17.6663C120.323 16.0388 120.201 14.2982 120.429 12.5095C121.394 4.92349 128.264 -0.649023 135.78 0.0622113C143.293 0.776273 148.602 7.5026 147.637 15.09C146.674 22.6746 139.801 28.2472 132.286 27.5345C127.777 27.1061 124.062 24.5114 122.019 20.8619L78.4676 39.9931C76.3656 40.9165 74.9827 37.7661 77.0804 36.8428L77.0819 36.8414Z" fill="#03D4D9"/>
<path d="M0.111836 64.9825C1.07577 57.3936 7.94642 51.8225 15.4625 52.5323C19.9156 52.9579 23.5944 55.4932 25.6539 59.0692L38.5105 53.4429C40.6167 52.5196 41.9982 55.67 39.8977 56.5933L26.9717 62.2535C27.4204 63.922 27.5534 65.7135 27.3255 67.5587C27.0849 69.4181 26.4946 71.1587 25.6255 72.7127L45.0896 86.9332C46.9438 88.2906 44.9056 91.0634 43.0513 89.7046L23.6 75.4954C20.6955 78.6274 16.4463 80.4331 11.9734 80.0089C4.46014 79.2962 -0.849263 72.5685 0.111836 64.9825Z" fill="#03D4D9"/>
</g>
<defs>
<clipPath id="clip0_115_1365">
<rect width="468" height="149" fill="white"/>
</clipPath>
</defs>
</svg>
