<svg width="146" height="45" viewBox="0 0 146 45" fill="none" xmlns="http://www.w3.org/2000/svg">
<g clip-path="url(#clip0_7_2790)">
<path fill-rule="evenodd" clip-rule="evenodd" d="M25.3634 23.8188C25.3634 20.2484 27.2347 17.1137 30.6435 17.1137C31.1787 17.1137 31.813 17.2304 32.3475 17.3463C32.081 21.4668 29.0727 26.4291 26.7676 26.4291C25.8645 26.4291 25.3634 25.4729 25.3634 23.8188ZM35.5556 14.7928C34.1514 14.4147 32.5814 14.1541 30.8108 14.1541C25.2975 14.1541 20.7517 17.6949 20.7517 24.2537C20.7517 28.1424 22.8569 29.9132 25.7646 29.9132C28.5715 29.9132 31.1446 28.0848 32.5814 23.8468H32.7154C32.1809 25.6456 31.8463 27.6779 31.6124 29.6214H37.6942L37.9963 26.6618H35.8895L36.726 17.81C36.8259 16.8235 36.9924 15.7786 37.2597 14.792H35.5564L35.5556 14.7928Z" fill="#003D72"/>
<path d="M50.8375 29.6222H56.0502L56.3515 26.6625H54.0464L50.8375 22.02L57.1872 17.2312L57.4877 14.4435H50.6043L50.303 17.2312H52.6422L49.3008 19.8415L45.5574 14.4435H40.3439L40.0434 17.4047H42.3492L45.6248 22.1351L39.3432 26.8368L39.0419 29.6222H46.1267L46.4264 26.8368H43.8867L47.1615 24.3113L50.8375 29.6222Z" fill="#003D72"/>
<path d="M10.3627 37.2563L12.0659 36.5592C15.8767 34.9914 17.9478 32.6705 18.5163 27.127L19.7858 14.4435H13.3029L13.0016 17.4047H15.1076L14.2385 26.3723C13.8048 30.7254 12.8017 33.2222 8.8252 34.6436L10.3627 37.2563Z" fill="#003D72"/>
<path fill-rule="evenodd" clip-rule="evenodd" d="M58.3901 13.8669C58.3901 14.4341 58.8386 14.799 59.3413 14.799C59.844 14.799 60.2924 14.4333 60.2924 13.8669C60.2924 13.3005 59.844 12.9387 59.3413 12.9387C58.8386 12.9387 58.3901 13.3021 58.3901 13.8669ZM58.6426 13.8669C58.6426 13.4437 58.9517 13.1379 59.3413 13.1379C59.7247 13.1379 60.0391 13.4437 60.0391 13.8669C60.0391 14.2902 59.7247 14.6006 59.3413 14.6006C58.9517 14.6006 58.6426 14.2909 58.6426 13.8669ZM58.9718 14.3859H59.1779V13.9408H59.3064L59.5582 14.3859H59.7735L59.4962 13.9315C59.6503 13.919 59.7688 13.8436 59.7688 13.6537C59.7688 13.4258 59.6224 13.3441 59.3622 13.3441H58.971L58.9718 14.3859ZM59.1779 13.5051H59.3513C59.4451 13.5051 59.5644 13.523 59.5644 13.6351C59.5644 13.7619 59.4776 13.779 59.3606 13.779H59.1786L59.1779 13.5051Z" fill="#003D72"/>
<path d="M27.8752 40.531C27.9481 39.9537 28.1347 39.4153 28.4128 38.9376L20.792 33.3038C20.2467 32.9016 20.847 32.0807 21.3915 32.483L29.0231 38.1245C29.8782 37.2313 31.1043 36.7209 32.3963 36.8446C34.6092 37.0547 36.1738 39.048 35.8903 41.295C35.606 43.542 33.5821 45.193 31.3669 44.9821C29.154 44.7713 27.5902 42.7787 27.8752 40.531Z" fill="#EC5F72"/>
<path d="M22.7089 11.774L35.5711 6.09355C35.4479 5.61117 35.4123 5.09611 35.4789 4.56549C35.7631 2.31852 37.787 0.667527 40.0015 0.878375C42.2151 1.09 43.7789 3.08255 43.4947 5.3303C43.2112 7.57726 41.1858 9.22826 38.9721 9.01663C37.643 8.88981 36.5493 8.12111 35.9475 7.03964L23.1171 12.7069C22.4975 12.9799 22.0908 12.0471 22.7081 11.7732L22.7089 11.774Z" fill="#EC5F72"/>
<path d="M0.0333121 20.1106C0.317571 17.8629 2.34147 16.2119 4.5559 16.4219C5.86798 16.548 6.95158 17.2996 7.55805 18.3585L11.3456 16.6919C11.966 16.4188 12.3734 17.3517 11.7545 17.6256L7.9461 19.3022C8.07854 19.7963 8.11805 20.3269 8.04988 20.8739C7.97863 21.4247 7.80513 21.9406 7.54875 22.4004L13.2827 26.6127C13.8288 27.0149 13.2285 27.8365 12.6825 27.4335L6.95158 23.2243C6.0957 24.1517 4.84403 24.687 3.52652 24.5618C1.31364 24.3509 -0.250172 22.3584 0.0333121 20.1106Z" fill="#EC5F72"/>
<path d="M70.7836 17.0389H74.1343L71.4249 29.8221H67.6111L67.3074 21.9445H67.2718L65.5965 29.8221H62.3527L65.0613 17.0389H68.9286L69.0889 24.845H69.1253L70.7836 17.0389Z" fill="#EC5F72"/>
<path d="M76.2333 17.0389H83.8974L83.2732 19.9402H79.1735L78.7645 21.9087H82.5954L82.0075 24.7018H78.1759L77.6949 26.9223H81.9541L81.3484 29.8228H73.5239L76.2333 17.0389Z" fill="#EC5F72"/>
<path d="M95.556 17.0389H98.9059L94.0936 29.8221H90.2798L91.0288 21.2287H90.9931L88.1591 29.8221H84.2739L84.8974 17.0389H88.3558L87.2683 26.0984H87.304L90.3526 17.0389H93.4887L92.8296 26.0984H92.8652L95.556 17.0389Z" fill="#EC5F72"/>
<path d="M110.773 17.0389H114.64L109.792 24.7913L108.723 29.8221H105.158L106.228 24.7913L104.659 17.0389H108.616L108.687 21.4963H108.723L110.773 17.0389Z" fill="#EC5F72"/>
<path d="M119.441 16.7885C124.021 16.7885 123.451 19.4742 122.614 23.4305C121.74 27.5121 121.206 30.0726 116.626 30.0726C112.046 30.0726 112.58 27.5121 113.453 23.4305C114.291 19.4742 114.861 16.7885 119.441 16.7885ZM118.942 19.1521C118.176 19.1521 117.908 19.689 117.123 23.4305C116.322 27.1729 116.357 27.7097 117.123 27.7097C117.889 27.7097 118.139 27.1729 118.942 23.4305C119.727 19.689 119.708 19.1521 118.942 19.1521Z" fill="#EC5F72"/>
<path d="M125.697 17.0389H131.043C133.503 17.0389 134.287 18.2566 133.842 20.3876C133.414 22.4284 132.362 23.2881 131.061 23.4663V23.5021C131.756 23.5558 132.327 23.9137 132.54 24.5229C132.737 25.0955 132.576 25.9545 132.415 26.7068L132.184 27.7626C132.041 28.4792 131.988 29.0876 132.041 29.2673C132.077 29.4455 132.184 29.5715 132.326 29.6423L132.29 29.8213H128.511C128.334 29.535 128.494 28.6044 128.636 27.9773C128.761 27.3503 128.85 26.706 128.975 26.0797C129.207 24.9881 128.904 24.7913 128.281 24.7913H127.621L126.551 29.8221H122.987L125.695 17.0389H125.697ZM128.121 22.4284H128.638C129.226 22.4284 129.903 22.1592 130.171 20.9237C130.384 19.8679 129.921 19.6166 129.119 19.6166H128.71L128.121 22.4276V22.4284Z" fill="#EC5F72"/>
<path d="M142.133 17.0389H146L141.669 22.661L143.683 29.8221H139.673L138.746 25.5794L138.033 26.5644L137.338 29.8228H133.774L136.482 17.0397H140.048L139.014 21.9094H139.049L142.133 17.0389Z" fill="#EC5F72"/>
</g>
<defs>
<clipPath id="clip0_7_2790">
<rect width="146" height="44.1395" fill="white" transform="translate(0 0.860474)"/>
</clipPath>
</defs>
</svg>
