<?xml version="1.0" encoding="utf-8"?>
<!-- Generator: Adobe Illustrator 23.0.1, SVG Export Plug-In . SVG Version: 6.00 Build 0)  -->
<svg version="1.1" id="Layer_1" xmlns="http://www.w3.org/2000/svg" xmlns:xlink="http://www.w3.org/1999/xlink" x="0px" y="0px"
	 viewBox="0 0 4961.3 1673.4" style="enable-background:new 0 0 4961.3 1673.4;" xml:space="preserve">
<style type="text/css">
	.st0{fill:#2F2262;}
	.st1{fill:#FFFFFF;}
	.st2{fill:#E30613;}
	
		.st3{clip-path:url(#SVGID_2_);fill-rule:evenodd;clip-rule:evenodd;fill:#FFFFFF;stroke:#12100B;stroke-width:35.2707;stroke-miterlimit:10;}
	.st4{clip-path:url(#SVGID_2_);fill:#FFFFFF;stroke:#12100B;stroke-width:39.6572;stroke-miterlimit:10;}
	.st5{fill:#12100B;}
	.st6{fill:none;}
</style>
<g>
	<g>
		<path class="st0" d="M2250.2,907.5c0-17.2-6.1-30.5-18.2-40.1c-12.2-9.6-33.5-19.5-64-29.8c-30.5-10.3-55.5-20.2-74.9-29.8
			c-63.1-31-94.6-73.6-94.6-127.7c0-27,7.9-50.8,23.6-71.4c15.7-20.6,38-36.7,66.7-48.2c28.8-11.5,61.1-17.2,97-17.2
			c35,0,66.4,6.2,94.1,18.7c27.8,12.5,49.3,30.3,64.7,53.3c15.4,23.1,23.1,49.4,23.1,79.1h-117c0-19.8-6.1-35.2-18.2-46.1
			c-12.2-10.9-28.6-16.4-49.3-16.4c-21,0-37.5,4.6-49.7,13.9c-12.2,9.3-18.2,21-18.2,35.3c0,12.5,6.7,23.8,20.1,33.9
			c13.4,10.1,36.9,20.6,70.6,31.4c33.7,10.8,61.3,22.5,82.9,34.9c52.6,30.3,78.9,72.1,78.9,125.4c0,42.6-16.1,76-48.2,100.3
			c-32.1,24.3-76.1,36.5-132.1,36.5c-39.5,0-75.2-7.1-107.2-21.2c-32-14.2-56.1-33.6-72.2-58.2c-16.2-24.6-24.2-53-24.2-85.1h117.7
			c0,26.1,6.7,45.3,20.2,57.7c13.5,12.4,35.4,18.6,65.7,18.6c19.4,0,34.7-4.2,46-12.5C2244.6,934.4,2250.2,922.6,2250.2,907.5z"/>
		<path class="st0" d="M2758.5,858.6c0,56.2-12.7,101.1-38,134.6c-25.3,33.6-59.5,50.3-102.5,50.3c-33.2,0-60.5-12.1-81.9-36.5V1176
			h-112.7V675h105.3l3.3,33.4c21.6-26.8,50-40.1,85.3-40.1c44.6,0,79.3,16.4,104,49.3c24.7,32.9,37.1,78.1,37.1,135.6V858.6z
			 M2645.8,851.6c0-64.2-18.7-96.3-56.2-96.3c-26.8,0-44.6,9.6-53.5,28.8v142.5c9.8,20.1,27.9,30.1,54.2,30.1
			c35.9,0,54.4-31,55.5-93V851.6z"/>
		<path class="st0" d="M2983.2,1043.6c-55.5,0-100.4-16.6-134.8-49.7c-34.3-33.1-51.5-76.2-51.5-129.3v-9.4c0-37,6.9-69.7,20.6-98
			c13.7-28.3,33.7-50.2,60-65.7c26.3-15.5,57.5-23.2,93.6-23.2c50.8,0,91,15.8,120.4,47.3c29.4,31.6,44.1,75.5,44.1,131.9v43.8
			h-224.1c4,20.3,12.8,36.2,26.4,47.8c13.6,11.6,31.2,17.4,52.8,17.4c35.7,0,63.5-12.5,83.6-37.5L3126,980
			c-14,19.4-33.9,34.8-59.7,46.3C3040.6,1037.8,3012.9,1043.6,2983.2,1043.6z M2970.5,755.3c-33,0-52.6,21.9-58.9,65.5h113.7v-8.7
			c0.4-18.1-4.1-32-13.7-42C3002.1,760.3,2988.4,755.3,2970.5,755.3z"/>
		<path class="st0" d="M3384.9,1036.9c-4-7.4-7.6-18.2-10.7-32.4c-20.7,26.1-49.7,39.1-86.9,39.1c-34.1,0-63.1-10.3-86.9-30.9
			c-23.9-20.6-35.8-46.5-35.8-77.8c0-39.2,14.5-68.9,43.5-89c29-20.1,71.1-30.1,126.4-30.1h34.8v-19.2c0-33.4-14.4-50.1-43.1-50.1
			c-26.8,0-40.1,13.2-40.1,39.7h-112.7c0-35,14.9-63.4,44.6-85.2s67.7-32.7,113.9-32.7c46.2,0,82.6,11.3,109.4,33.8
			c26.8,22.5,40.5,53.4,41.1,92.6v160.2c0.4,33.2,5.6,58.6,15.4,76.2v5.7H3384.9z M3314.3,963.3c14,0,25.7-3,34.9-9
			c9.2-6,15.9-12.8,19.9-20.4V876h-32.8c-39.2,0-58.9,17.6-58.9,52.8c0,10.3,3.5,18.6,10.4,24.9
			C3294.8,960.1,3303.6,963.3,3314.3,963.3z"/>
		<path class="st0" d="M3715.3,855.6l-48.2,52.8v128.4h-117.4V550h117.4v214.7l40.8-61.9l105-152.8h145.1l-164.5,215.4l164.5,271.5
			h-139.1L3715.3,855.6z"/>
		<path class="st0" d="M3959.4,852.6c0-36.1,7-68.3,21.1-96.5c14-28.2,34.2-49.9,60.5-65c26.3-15.2,57.2-22.7,92.6-22.7
			c54.2,0,96.9,16.8,128.1,50.3c31.2,33.6,46.8,79.2,46.8,136.9v4c0,56.4-15.7,101.2-47,134.3c-31.3,33.1-73.7,49.7-127.2,49.7
			c-51.5,0-92.9-15.4-124.1-46.3c-31.2-30.9-48-72.7-50.5-125.6L3959.4,852.6z M4072.1,859.6c0,33.4,5.2,58,15.7,73.6
			c10.5,15.6,26,23.4,46.5,23.4c40.1,0,60.6-30.9,61.5-92.6v-11.4c0-64.9-20.7-97.3-62.2-97.3c-37.7,0-58.1,28-61.2,83.9
			L4072.1,859.6z"/>
		<path class="st0" d="M4461.7,675l3.7,42.5c25-32.8,59.4-49.2,103.3-49.2c37.7,0,65.8,11.3,84.4,33.8
			c18.6,22.5,28.3,56.4,28.9,101.7v233.1h-113V808.5c0-18.3-3.7-31.7-11-40.3c-7.4-8.6-20.7-12.9-40.1-12.9
			c-22.1,0-38.5,8.7-49.2,26.1v255.5H4356V675H4461.7z"/>
		<path class="st0" d="M4769.4,1036.9V753.3h-52.5V675h52.5v-28.8c0-41.2,12.1-73.2,36.5-96c24.3-22.7,58.4-34.1,102.3-34.1
			c16.1,0,33.7,2.3,52.8,7l0.3,82.9c-6.9-2-16.2-3-27.8-3c-34.1,0-51.2,14.7-51.2,44.1V675h70.6v78.3h-70.6v283.6H4769.4z"/>
	</g>
	<g>
		<g>
			<g>
				<g>
					<path class="st0" d="M836.7,0C374.6,0,0,374.6,0,836.7s374.6,836.7,836.7,836.7s836.7-374.6,836.7-836.7S1298.8,0,836.7,0z
						 M836.7,1470.8c-350.2,0-634.1-283.9-634.1-634.1c0-226.4,118.7-425.1,297.2-537.3c-0.2,0.1-0.3,0.2-0.5,0.3
						c-3.8-21-17.7-108.2-17.7-108.2s63,54.6,80.8,73.3c-0.1,0-0.1,0-0.1,0.1c83.1-40,176.2-62.4,274.6-62.4
						c95.3,0,185.7,21,266.8,58.7c-0.2-0.1-0.4-0.2-0.6-0.3c2.1-5,5.6-10.9,7.9-15.9c5.3-11.2,13.6-20.9,22.6-27.7
						c11.1-8.5,29.3-12.7,41.4-8.1c12.5,4.8,25.3,17.7,27.9,32.2c4.3,23.7-2.8,50.3-12.7,68.4c-0.3-0.2-0.6-0.4-1-0.7
						c169.9,113.8,281.8,307.5,281.8,527.3C1470.8,1186.9,1186.9,1470.8,836.7,1470.8z"/>
					<path class="st0" d="M547.7,272.1c-16.5-17.4-32.1-31.6-45.6-40.5c3.9,17.3,7.5,35.1,10.9,53.2c0.4,2.3,0.8,4.3,1,5.9
						c14.3-8.5,29-16.4,44-23.8C554.6,268.6,551.6,270.1,547.7,272.1z"/>
					<path class="st0" d="M1188.5,246.7c-4.2-23.5-27.5-33.8-46.3-19.5c-8.2,6.3-15.3,15.6-19.7,25c-2.3,4.9-4.5,9.9-6.5,15
						c-0.2-0.1-0.5-0.2-0.7-0.4c21.5,10.6,42.4,22.3,62.5,35.1C1186.7,285.3,1192.3,267.4,1188.5,246.7z"/>
				</g>
				<g>
					<path class="st1" d="M275.4,1206.6l14.7,23.6l-67.4,42.1c-6.3,3.9-12.7,5.9-19.4,6.1c-6.7,0.2-13-1.5-19-5
						c-5.9-3.5-10.9-8.5-14.9-14.8c-6.7-10.7-9.2-20.7-7.5-30c1.7-9.3,7.5-17,17.4-23.2l14.8,23.7c-4.5,2.8-7.3,5.6-8.3,8.4
						c-1.1,2.8-0.4,6,1.8,9.7c2,3.3,4.9,5,8.4,5.3c3.6,0.2,7.5-1,11.9-3.8L275.4,1206.6z"/>
					<path class="st1" d="M365.4,1320.2l-56.9,50c-6.5,5.7-13.2,9.2-20.4,10.6c-7.1,1.4-14.2,0.6-21.2-2.4c-7-3-13.5-8-19.7-15
						c-9.3-10.6-13.9-21.4-13.7-32.3c0.1-10.9,4.9-20.6,14.4-29.1l57.4-50.4l18.5,21.1l-57.8,50.7c-9.3,8.6-10.2,17.2-2.6,25.8
						c3.8,4.3,7.9,6.6,12.2,6.7c4.3,0.1,9.2-2.2,14.6-6.9l56.8-49.9L365.4,1320.2z"/>
					<path class="st1" d="M394.8,1476.7c-6.3,1-13.6,0.1-21.9-2.8c-8.3-2.9-16.3-7.4-24-13.6c-11.8-9.5-18.4-20.7-19.7-33.6
						c-1.3-12.9,3-26,12.8-39.3l6.2-7.9c7.1-8.9,14.9-15.4,23.4-19.5c8.5-4.1,17-5.6,25.8-4.5c8.7,1.1,16.9,4.7,24.6,10.9
						c11.3,9,17.9,18.6,20.1,28.7c2.1,10.1-0.4,20.7-7.6,31.8l-21-16.8c3.3-5.6,4.6-10.5,3.8-14.7c-0.8-4.1-3.4-8-8-11.7
						c-5.5-4.4-11.5-5.4-18.2-3.2c-6.7,2.3-13.5,7.7-20.4,16.2l-4.4,5.5c-7.2,9-11.1,17-11.6,24c-0.5,7,2.5,13.1,9.1,18.4
						c5.7,4.5,10.9,6.6,15.7,6.3l11.2-14l-15.2-12.1l12-15l36.9,29.5L394.8,1476.7z"/>
					<path class="st1" d="M477.9,1543.4l47.2-105.7l34,15.2c9.3,4.2,16.8,10,22.4,17.6c5.6,7.6,8.7,16.1,9.5,25.7
						c0.7,9.6-1,19.2-5.2,28.8l-2.2,4.9c-4.3,9.7-10.2,17.4-17.8,23.3c-7.5,5.8-16,9.3-25.3,10.3c-9.4,1-18.6-0.5-27.8-4.5
						L477.9,1543.4z M541.8,1468.7l-29.7,66.4l8.9,4c7.3,3.3,14.1,3.2,20.3-0.3c6.2-3.5,11.7-10.3,16.2-20.6l2-4.6
						c4.6-10.2,6-18.8,4.4-25.7c-1.6-6.9-6.2-12.1-13.7-15.4L541.8,1468.7z"/>
					<path class="st1" d="M669.1,1589l-37.1-9.3l-11.7,19.3l-28.9-7.3l69.4-101.9l25.4,6.4l13.3,122.7l-29.1-7.3L669.1,1589z
						 M643.7,1560.4l24.1,6.1l-2.3-42L643.7,1560.4z"/>
					<path class="st1" d="M782.3,1586l-15.1-1.1l-2.9,40.8l-27.8-2l8.2-115.5l45.4,3.2c13.7,1,24.2,4.8,31.5,11.4
						c7.3,6.6,10.5,15.5,9.8,26.6c-0.6,8-2.7,14.6-6.3,19.6c-3.6,5.1-9,9-16.2,11.8l20.8,48.3l-0.1,1.2l-29.8-2.1L782.3,1586z
						 M768.7,1563.5l17.6,1.2c5.3,0.4,9.4-0.7,12.2-3.3c2.9-2.6,4.5-6.4,4.8-11.4c0.4-5-0.7-9-3.2-12s-6.4-4.7-11.6-5.1l-17.6-1.2
						L768.7,1563.5z"/>
					<path class="st1" d="M894.7,1511.2l35.6,76.7l15.6-83.1l36.4-4.6l14.4,114.9l-27.8,3.5l-3.4-26.8l-4.2-55.2l-17.5,85.2
						l-18.3,2.3l-38.1-78.3l9.6,54.7l3.4,26.8l-27.7,3.5l-14.4-114.9L894.7,1511.2z"/>
					<path class="st1" d="M1090.2,1554.6c-1.3-3.9-3.7-6.4-7.1-7.7c-3.5-1.3-9-1.9-16.7-1.9c-7.7,0-14-0.4-19.1-1.1
						c-16.6-2.3-26.9-9.5-30.9-21.7c-2-6.1-2-12,0-17.9c2-5.8,5.8-11.1,11.5-15.9c5.6-4.7,12.5-8.5,20.6-11.1
						c7.9-2.6,15.4-3.6,22.6-2.8c7.2,0.7,13.4,3.1,18.6,7.2s8.9,9.4,11.1,16.1l-26.4,8.8c-1.5-4.5-4-7.5-7.6-9
						c-3.6-1.6-7.7-1.6-12.4,0c-4.7,1.6-8.1,3.9-10.2,6.8c-2.1,3-2.5,6.1-1.5,9.3c0.9,2.8,3.3,4.9,7.1,6.2s9.9,1.9,18.3,1.8
						c8.4-0.1,15.5,0.5,21.3,1.7c14.1,2.9,23.2,10.4,27.2,22.4c3.2,9.6,2.1,18.4-3.4,26.2c-5.4,7.9-14.5,13.9-27.1,18.1
						c-8.9,3-17.5,4-25.8,3.2c-8.3-0.8-15.2-3.4-20.7-7.7c-5.5-4.3-9.4-10.1-11.8-17.4l26.6-8.8c2,5.9,4.9,9.7,8.9,11.5
						c4,1.8,9.4,1.5,16.2-0.7c4.4-1.5,7.5-3.5,9.4-6.3C1090.9,1561.1,1091.3,1558,1090.2,1554.6z"/>
					<path class="st1" d="M1201.5,1432.2l-30.7,16.3l44.2,83.2l-24.7,13.1l-44.2-83.2l-30.1,16l-10.1-19l85.5-45.4L1201.5,1432.2z"
						/>
					<path class="st1" d="M1310.3,1442.3l-30.5,23.1l7.7,21.3l-23.8,18l-35.9-117.9l20.9-15.8l103.9,66.6l-23.9,18.1L1310.3,1442.3z
						 M1272.1,1444.2l19.9-15l-34.2-24.5L1272.1,1444.2z"/>
					<path class="st1" d="M1379.5,1411.8l-84.7-78.9l25.4-27.3c7-7.5,14.9-12.6,23.9-15.4c9-2.8,18.1-3,27.4-0.6
						c9.3,2.4,17.8,7.2,25.5,14.3l3.9,3.6c7.8,7.2,13.2,15.3,16.3,24.3c3.1,9,3.6,18.1,1.5,27.3s-6.5,17.5-13.3,24.8L1379.5,1411.8z
						 M1329.6,1327.1l53.2,49.6l6.6-7.1c5.5-5.9,7.6-12.3,6.3-19.3c-1.2-7-6-14.4-14.2-22l-3.7-3.4c-8.2-7.6-15.8-11.8-22.9-12.5
						c-7.1-0.7-13.4,1.9-19,7.9L1329.6,1327.1z"/>
					<path class="st1" d="M1435.6,1189.5l-19.4,28.8l78.2,52.5l-15.6,23.2l-78.2-52.5l-19,28.3l-17.9-12l53.9-80.3L1435.6,1189.5z"
						/>
				</g>
			</g>
		</g>
		<g>
			<g>
				<g>
					<path d="M502.1,231.7C558.9,269,653.2,402.3,698,457.9c55.5,68.8,100.8,122.8,152.2,194.9c17,23.9,34.4,37.5,52.9,14
						c42.7-54.3,54.4-63.2,86.8-126.7c8-15.8,9.9-29.7-0.8-47.4c-8.1-13.4-8.7-32.7-8.7-49.4c0.1-30-7-42.3-35.7-33.9
						c-7.4,2.2-17,5.6-25,5.5c-5.3-8.5-1.2-20,2.7-27.7c19.7-38.1,57.8-42.8,89.9-13.8c6.1,5.5,22.2,9.1,27.1,5.3
						c18.2-14.7,37.1-30.7,49.3-50.2c14.6-23.3,22-51.1,33.9-76.2c4.5-9.4,11.5-18.8,19.7-25c18.7-14.3,42.1-4.1,46.3,19.5
						c5.4,29.9-8.6,54-24.5,77.3c-6,8.8-11.9,17.6-18.3,27.1c31.4,17.7,37.4,32.7,47.7,60.8c0.6,1.6,3.9,5.2,4.8,6.3
						c30.5,34.4-9,59.7-28.5,72.2c-23.2,14.9-41.1,32.3-66.3,43.7c-10.3,4.7-24.8,8.2-34,4.8c-33.6-12.4-39.3,1.7-56.2,20.9
						c-40.9,46.5-57.5,69.2-93.6,124.7c-20.2,31.1-22.6,49.5-7.3,82.3c61.9,132.6,94,271.7,83.8,418.8c-1.7,23.9-7.4,48.1-14.9,71
						c-7,21.4-23.3,40.4-47.1,44.8c-24.3,4.5-41-8.8-54.9-28.6c-19-27.2-37.7-55-59.1-80.3c-38.7-45.7-93.5-57.6-144.8-27.6
						c-40.7,23.8-60.4,48.3-99,75.9c-11.6,8.3-40.2,28.2-53.3,32.7c-39.7,13.8-62,3.2-67.2-42.1c-2.6-22.1-0.4-44.8-0.4-69
						c-5.3,0-12.1,0.7-18.6-0.1c-28.9-3.7-39.7-24.5-26.2-50.6c3.3-6.3,7.7-12.3,12.8-17.2c36.7-35.8,39.7-79.2,26.7-125
						c-12.9-45-12.9-86.5,19.4-124.2c53.3-62.1,60-111.3,69-215.3S531.7,363.6,502.1,231.7z M563.9,735.5
						c-12.2,56.2-24.1,106.5-34,157.3c-12.2,62.7-24.5,125.5-33.6,188.8c-6.4,44.4-9.7,89.6-10.3,134.4c-0.4,30.8,16.1,38,42.1,21.8
						c12.1-7.5,22.5-17.8,33.9-26.5c33.4-25.4,64.8-54.3,100.9-75.2c55.3-32,115.3-23.1,160.4,22.2c25.7,25.8,46.6,56.7,68.9,85.9
						c10.6,13.9,29.1,35.2,47.1,24.8c12.8-7.4,17.9-29,20-44c12.7-91.5,11.9-182.1-12.1-273.1c-29.2-110.5-72.9-214-130.6-311.9
						c-4.1-6.9-18.4-23.8-20.5,14.4c-3.2,57.8-21.9,92.7-76.4,117.2C628.1,812.5,570,748.7,563.9,735.5z M483.5,976.4
						c6.9-40.5,12.8-74.4,18.6-108.3C460.7,895.7,454.8,933.1,483.5,976.4z"/>
					<path class="st1" d="M483.5,976.4c-28.7-43.3-22.8-80.7,18.6-108.3C496.3,902.1,490.4,936,483.5,976.4z"/>
				</g>
			</g>
			
				<ellipse transform="matrix(0.9757 -0.2189 0.2189 0.9757 -131.1889 162.7813)" class="st2" cx="669.1" cy="673.5" rx="91.6" ry="73"/>
			
				<ellipse transform="matrix(0.894 -0.448 0.448 0.894 -228.221 359.4301)" class="st1" cx="645.6" cy="662.1" rx="31.7" ry="25.2"/>
		</g>
		<g>
			<g>
				<defs>
					<circle id="SVGID_1_" cx="836.7" cy="836.7" r="581.2"/>
				</defs>
				<clipPath id="SVGID_2_">
					<use xlink:href="#SVGID_1_"  style="overflow:visible;"/>
				</clipPath>
				<path class="st3" d="M1159.8,888c11.5,0,20.9,9.3,20.9,20.8v41.7c0,11.5-9.3,20.8-20.9,20.8h-41.6V1525H707.5V971.3h-41.6
					c-11.5,0-20.9-9.3-20.9-20.8v-41.7c0-11.5,9.4-20.8,20.9-20.8H1159.8z"/>
				<line class="st4" x1="794.3" y1="961.3" x2="794.3" y2="1525"/>
				<line class="st4" x1="873.3" y1="961.3" x2="873.3" y2="1513.9"/>
				<line class="st4" x1="952.3" y1="961.3" x2="952.3" y2="1525"/>
				<line class="st4" x1="1031.3" y1="961.3" x2="1031.3" y2="1525"/>
			</g>
		</g>
		<g>
			<path class="st5" d="M1022.5,773.2c30.7,0,55.5-24.9,55.5-55.5c0-30.7-24.8-55.5-55.5-55.5c-30.6,0-55.5,24.9-55.5,55.5
				C967,748.4,991.9,773.2,1022.5,773.2z"/>
			<path class="st5" d="M1096.9,818.6l31.1,24.6l20.1-21L1084,738c-3.1,9.3-7.9,18-15.3,25.4c-7.4,7.4-15.5,12.5-24.8,15.6
				l23.5,17.1v80.8h29.6V818.6z"/>
		</g>
		<g>
			<path class="st6" d="M938.2,401.9c0.4-0.1,0.9-0.3,1.3-0.4c-4.3,0.4-8.7,0.7-13.1,1c-0.1,0.9-0.2,1.8-0.2,2.6
				C930.1,404.4,934.3,403.1,938.2,401.9z"/>
		</g>
	</g>
</g>
</svg>
