<svg xmlns="http://www.w3.org/2000/svg" width="134.375" height="81.073" viewBox="0 0 134.375 81.073">
  <g id="Group_4" data-name="Group 4" transform="translate(-2158.245 323.892)">
    <path id="Path_703" data-name="Path 703" d="M1118.407,476.3h-6.346v-9.9a9.891,9.891,0,0,0-9.882-9.9h15.528a17.533,17.533,0,0,0,3.176-.922,12.829,12.829,0,0,0,2.7-1.44,7.987,7.987,0,0,0,1.976-1.96,7.063,7.063,0,0,0,1.026-2.346,11.014,11.014,0,0,0,.285-2.632,11.412,11.412,0,0,0-.263-2.536,7.227,7.227,0,0,0-.59-1.675,6.465,6.465,0,0,0-1.394-1.844,9.472,9.472,0,0,0-1.89-1.359,14.833,14.833,0,0,0-3.024-1.252,15.669,15.669,0,0,0-1.95-.453h-15.6a9.9,9.9,0,1,1,0-19.8h16.245c.3,0,.6.014.889.04a32.975,32.975,0,0,1,6.094,1.245,34.6,34.6,0,0,1,7.078,2.977,28.945,28.945,0,0,1,5.788,4.242,26.361,26.361,0,0,1,5.491,7.386,27.232,27.232,0,0,1,2.178,6.144,32.065,32.065,0,0,1-.123,14.295,26.766,26.766,0,0,1-3.991,8.881,27.728,27.728,0,0,1-6.825,6.833,32.791,32.791,0,0,1-6.821,3.661,34.814,34.814,0,0,1-8.776,2.26,9.559,9.559,0,0,1-.983.05" transform="translate(1145.948 -742.17)" fill="#0074be"/>
    <path id="Path_704" data-name="Path 704" d="M1102.157,603.319a9.891,9.891,0,0,1-9.9-9.883V570.547a9.89,9.89,0,0,0,9.889,9.892h9.909v12.981a9.891,9.891,0,0,1-9.883,9.9h-.016Z" transform="translate(1145.952 -846.306)" fill="#ffb271"/>
    <path id="Path_705" data-name="Path 705" d="M973.4,499.327a9.874,9.874,0,0,1-7.7-3.672l-17-21.005,7.7-9.509A9.894,9.894,0,0,0,956.641,453l-7.385-9.906,18.4-21.392a9.962,9.962,0,0,1,1.608-1.5,9.858,9.858,0,0,1,3.829-1.728,9.9,9.9,0,0,1,9.573,16.135l-21.068,24.5,19.5,24.094a9.9,9.9,0,0,1-7.689,16.126Z" transform="translate(1244.135 -742.146)" fill="#ffb271"/>
    <path id="Path_706" data-name="Path 706" d="M849.141,499.325a9.9,9.9,0,0,1-7.688-16.126l19.855-24.536-18.336-24.595a9.9,9.9,0,1,1,15.872-11.834l15.547,20.854-8.057,9.369a9.892,9.892,0,0,0-.19,12.681l7.695,9.509-17,21.005a9.892,9.892,0,0,1-7.7,3.672" transform="translate(1319 -742.145)" fill="#0074be"/>
    <path id="Path_707" data-name="Path 707" d="M919.589,518.888a9.9,9.9,0,0,1,.19-12.681l8.056-9.368,7.385,9.906a9.9,9.9,0,0,1-.241,12.144l-7.695,9.509Z" transform="translate(1265.557 -795.894)" fill="#004655"/>
    <path id="Path_708" data-name="Path 708" d="M1102.167,559.006a9.9,9.9,0,0,1-.383-19.79q.19-.007.383-.007a9.9,9.9,0,0,1,9.9,9.9v9.9Z" transform="translate(1145.942 -824.872)" fill="#004655"/>
  </g>
</svg>
