<?xml version="1.0" encoding="UTF-8" standalone="no"?>
<!-- Created with Inkscape (http://www.inkscape.org/) -->

<svg
   xmlns:dc="http://purl.org/dc/elements/1.1/"
   xmlns:cc="http://creativecommons.org/ns#"
   xmlns:rdf="http://www.w3.org/1999/02/22-rdf-syntax-ns#"
   xmlns:svg="http://www.w3.org/2000/svg"
   xmlns="http://www.w3.org/2000/svg"
   xmlns:sodipodi="http://sodipodi.sourceforge.net/DTD/sodipodi-0.dtd"
   xmlns:inkscape="http://www.inkscape.org/namespaces/inkscape"
   id="svg5257"
   version="1.1"
   inkscape:version="0.91 r13725"
   xml:space="preserve"
   width="456.11365"
   height="258.19214"
   viewBox="0 0 456.11365 258.19214"
   sodipodi:docname="poster_logo.svg"><metadata
     id="metadata5263"><rdf:RDF><cc:Work
         rdf:about=""><dc:format>image/svg+xml</dc:format><dc:type
           rdf:resource="http://purl.org/dc/dcmitype/StillImage" /><dc:title></dc:title></cc:Work></rdf:RDF></metadata><defs
     id="defs5261" /><sodipodi:namedview
     pagecolor="#ffffff"
     bordercolor="#666666"
     borderopacity="1"
     objecttolerance="10"
     gridtolerance="10"
     guidetolerance="10"
     inkscape:pageopacity="0"
     inkscape:pageshadow="2"
     inkscape:window-width="1600"
     inkscape:window-height="838"
     id="namedview5259"
     showgrid="false"
     inkscape:zoom="0.44423519"
     inkscape:cx="-115.88569"
     inkscape:cy="151.80947"
     inkscape:window-x="-8"
     inkscape:window-y="-8"
     inkscape:window-maximized="1"
     inkscape:current-layer="g5265"
     fit-margin-top="0"
     fit-margin-left="0"
     fit-margin-right="0"
     fit-margin-bottom="0" /><g
     id="g5265"
     inkscape:groupmode="layer"
     inkscape:label="JUGD Final"
     transform="matrix(1.25,0,0,-1.25,-38.224125,372.00773)"><path
       d="m 268.4132,297.1318 14.3328,-5.6985 c 1.2163,-0.4841 2.164,-1.5587 2.164,-3.4319 l 0,-6.2685 6.0842,-2.4123 c 1.1316,-0.4484 1.9333,-1.58 1.9333,-3.3659 l 0,-6.84 6.2444,-2.4698 c 0.0473,-0.0156 0.4513,-0.1658 0.4416,-0.184 1.0143,-0.5178 1.732,-1.5953 1.732,-3.272 l 0,-138.1773 -15.5106,0 0,48.1348 12.026,-4.7081 0,10.7997 -12.026,4.7084 0,28.2438 12.026,-4.7083 0,10.8 -12.026,4.7081 0,46.4921 c 0,1.7257 -0.6432,2.8695 -1.5911,3.4642 l -0.001,0 c -0.5275,0.3308 -1.1461,0.4876 -1.7972,0.4768 -0.6386,-0.0108 -1.3101,-0.1825 -1.9581,-0.5085 -1.2255,-0.6171 -2.378,-1.7921 -3.0702,-3.4781 l 0,12.8114 c 0,1.495 -0.5389,2.5572 -1.3547,3.2055 -0.5318,0.422 -1.1798,0.6647 -1.8703,0.7327 -0.6801,0.0672 -1.4023,-0.0351 -2.0957,-0.2993 -1.0341,-0.3943 -2.0114,-1.1515 -2.6969,-2.249 l 0,10.6562 c 0,1.2425 -0.3792,2.1844 -0.9861,2.8378 z m 8.8248,-172.1202 0,1.0139 c -6.4185,-0.089 -14.5012,-0.5122 -24.412,-1.6313 l 0,-30.2993 -8.5042,0 0,165.9799 c 0,2.4636 1.1815,4.1428 2.6266,4.9581 0.5405,0.305 1.1194,0.4898 1.6855,0.5485 0.5581,0.0581 1.1029,-0.006 1.584,-0.1971 0.0518,-0.0204 0.1031,-0.0428 0.1533,-0.0663 l 2.2691,-0.902 0,11.6609 c 0,2.1645 0.9114,3.7233 2.1127,4.6228 0.5678,0.4246 1.2019,0.7032 1.8343,0.8282 0.625,0.1233 1.2456,0.097 1.7943,-0.0856 0.1307,-0.0433 0.2574,-0.0961 0.3799,-0.1576 l 2.0452,-0.8132 0,11.6073 c 0,2.5976 1.3572,4.3239 2.9591,5.0839 0.5442,0.2582 1.116,0.4054 1.6693,0.4371 0.5465,0.0309 1.0769,-0.0502 1.5463,-0.2472 1.0258,-0.4306 1.7699,-1.4354 1.7699,-3.0586 l 0,-12.1203 0.6316,-0.0987 c 0.5312,1.6441 1.6911,2.7292 2.9435,3.2069 0.6015,0.2293 1.2229,0.318 1.8023,0.261 0.5686,-0.0561 1.099,-0.2531 1.531,-0.5961 0.6678,-0.5306 1.1092,-1.4227 1.1092,-2.6989 l 0,-15.5344 0.644,-0.0442 0.0774,0.553 c 0.3656,2.6082 1.766,4.3492 3.2876,5.1151 0.561,0.2821 1.1364,0.4312 1.6778,0.4403 0.5281,0.009 1.0256,-0.1151 1.444,-0.3776 l -3e-4,-3e-4 c 0.7671,-0.4813 1.2875,-1.4411 1.2875,-2.9177 l 0,-46.4692 -26.6703,-1.7558 0,-10.8 26.6703,1.7558 0,-28.2438 -26.6703,-1.7558 0,-10.7997 26.6703,1.7558 0,-48.1578 -7.9489,0 z m -31.6508,112.9045 5.538,0.3645 0,23.7172 c 0,0.9071 -0.3135,1.8068 -1.1965,2.1934 -0.3316,0.1452 -0.6996,0.1968 -1.0598,0.1752 -0.4068,-0.0241 -0.8082,-0.14 -1.173,-0.3203 -1.446,-0.7152 -2.1087,-2.2439 -2.1087,-3.7995 l 0,-22.3305 z m 8.316,0.5476 5.538,0.3643 0,39.1538 c 0,0.9071 -0.3135,1.8068 -1.1965,2.1934 -0.3316,0.1452 -0.6996,0.1968 -1.0598,0.1752 -0.4068,-0.0241 -0.8082,-0.14 -1.173,-0.3203 -1.446,-0.7152 -2.1087,-2.2442 -2.1087,-3.7995 l 0,-37.7669 z m 8.208,0.5403 5.538,0.3645 0,54.5973 c 0,0.9071 -0.3135,1.8068 -1.1965,2.1934 -0.3316,0.1452 -0.6996,0.1965 -1.0598,0.1752 -0.4068,-0.0241 -0.8082,-0.14 -1.173,-0.3203 -1.446,-0.7152 -2.1087,-2.2442 -2.1087,-3.7995 l 0,-53.2106 z m 8.1144,0.534 5.5381,0.3649 0,41.9669 c 0,0.9071 -0.3135,1.8068 -1.1965,2.1934 -0.3317,0.1452 -0.6996,0.1965 -1.0599,0.1752 -0.4068,-0.0241 -0.8082,-0.14 -1.173,-0.3203 -1.4459,-0.7152 -2.1087,-2.2442 -2.1087,-3.7995 l 0,-40.5806 z m 8.3413,0.5494 5.538,0.3645 0,28.5395 c 0,0.9074 -0.3138,1.8068 -1.1965,2.1935 -2.2323,0.9782 -4.3415,-2.401 -4.3415,-4.3503 l 0,-26.7472 z"
       style="fill:#323070;fill-opacity:1;fill-rule:evenodd;stroke:none"
       id="path5267"
       inkscape:connector-curvature="0" /><path
       d="m 383.4111,111.564 4.5223,0 0.1384,-0.5686 0.1423,0.5686 4.5229,0 1.395,-11.0256 -16.1904,0 0,5.9088 -1.4241,0 0,5.1168 1.3711,0 c -0.2727,0.0601 -0.5372,0.1358 -0.7897,0.2293 -0.0593,0.0218 -0.3603,0.1171 -0.4255,0.08 -0.5434,-0.3082 -0.8068,-3.9617 -0.8785,-4.6032 -0.0759,-0.6786 -0.1661,-1.3587 -0.3038,-2.0279 l -0.006,-0.0275 -0.007,-0.0272 c -0.8252,-3.1986 -2.1937,-8.4317 -4.64,-10.7714 -2.8072,-2.6847 -8.1474,-3.8137 -11.888,-3.2009 -2.8547,0.4674 -5.7965,2.6586 -8.0407,4.3909 -3.3188,2.5616 -6.4718,5.2251 -9.9355,7.6121 -7.5863,5.2288 -15.7943,4.9065 -24.595,4.654 -3.9348,-0.1131 -7.7675,-0.8399 -11.5113,-2.037 -2.5092,-0.8025 -4.7834,-1.836 -7.2447,-2.7533 -1.0599,-0.3711 -2.2173,-0.9839 -3.2154,-1.5015 -1.5508,-0.8042 -3.0824,-1.6532 -4.6026,-2.5138 -2.649,-1.4998 -5.4255,-3.0699 -7.977,-4.7287 L 281.8003,94.32 c -2.2453,-1.3686 -6.0482,-1.6087 -8.5439,-0.9156 -2.6342,0.7316 -5.3458,3.2465 -6.3898,5.7782 -1.1455,2.7782 -2.0835,5.4405 -2.6011,8.4152 -0.322,1.8516 -0.6024,3.7213 -0.845,5.5471 -0.0607,0.3631 -0.1196,0.7274 -0.1749,1.0925 -2.0798,-0.1435 -4.3628,-0.2659 -6.3269,0.1476 -2.3973,0.5046 -6.9497,2.5382 -8.157,4.7518 -1.6838,3.2181 1.086,7.2187 5.072,7.2966 l 2.9407,0.0817 -0.214,6.7648 -1.8471,1.9375 c -0.2732,0.2665 -0.4674,0.593 -0.5581,0.9658 -0.3714,1.5236 0.9314,2.539 1.3436,3.7267 0.0201,2.416 -4.3557,6.7215 -5.491,8.7658 -1.1633,1.9384 -2.2901,6.7499 -1.1205,8.7965 l 0.0153,0.0258 c 1.1321,1.8644 7.3068,4.5357 9.4504,6.2133 1.8439,1.4431 3.9336,2.7972 5.8887,4.0918 2.0738,1.3734 4.178,2.7604 6.2847,4.0447 2.9384,1.8633 5.8413,2.962 8.0348,5.8944 2.2776,3.0447 5.7209,11.8536 6.2753,15.6288 0.1182,0.8034 0.4238,1.7195 0.6778,2.4914 0.4184,1.2716 0.8813,2.5336 1.3524,3.7871 1.2473,3.3182 2.579,6.6132 3.9283,9.8912 1.3555,3.293 2.7385,6.5764 4.1519,9.845 0.8311,1.9225 1.671,3.9535 2.6064,5.8249 1.4695,2.9393 2.8406,5.9876 4.2007,8.9802 0.8801,1.9363 1.7524,3.8778 2.5985,5.8291 0.4958,1.1432 1.0874,2.4239 1.4797,3.6261 0.3384,0.9729 0.9567,2.0529 1.4652,2.9506 0.741,1.3085 1.5245,2.5968 2.3122,3.8775 1.268,2.0614 2.6771,4.1667 3.8458,6.2751 0.7438,1.3416 1.5593,2.6382 2.2853,3.992 0.8983,1.6747 1.6404,3.3792 2.2156,5.1922 1.2194,3.8432 3.5846,4.0451 6.0151,1.1208 0.5901,-0.71 1.1214,-1.4836 1.62,-2.26 0.5969,-0.9304 1.152,-1.8851 1.7059,-2.8412 0.2352,-0.4059 0.6417,-1.1903 0.9357,-1.5321 2.6699,-3.1037 4.9209,-6.8956 6.8573,-10.4933 2.336,-4.3407 4.4146,-8.8489 6.3799,-13.3685 2.3261,-5.3492 4.4915,-10.7631 6.6617,-16.1767 1.5741,-3.9255 3.149,-8.057 5.0034,-11.8531 1.6818,-3.4427 3.0646,-6.9282 4.3359,-10.5381 0.9919,-2.8156 1.9125,-5.686 3.0991,-8.4265 0.7742,-1.7878 1.6628,-3.4963 2.7301,-5.1276 0.6596,-1.0092 3.0583,-2.831 4.0524,-3.608 0.9853,-0.7701 1.9825,-1.5244 2.9724,-2.2884 1.0973,-0.847 2.5019,-2.3391 2.8071,-3.8489 3.2772,-2.7107 6.5365,-5.4524 9.7767,-8.2065 1.9908,-1.692 3.9776,-3.3925 5.9369,-5.1211 1.1954,-1.0548 2.6164,-2.2516 3.6805,-3.4313 1.2898,-1.4298 2.1005,-3.1516 2.0279,-5.1047 -0.1712,-4.6134 -5.0488,-8.6627 -7.9497,-12.0033 l -0.76,-7.4976 c 2.4712,-2.9041 3.5683,-4.9062 3.6516,-8.6196 1.8862,-0.2058 4.6613,-0.7022 5.5173,-1.8258 l 0.021,-0.0284 c 1.321,-1.851 -0.6502,-4.6082 -2.0781,-5.7875 -2.2209,-1.932 -7.3434,-4.7851 -10.2242,-5.373 -0.2288,-0.0468 -0.4655,-0.0902 -0.7081,-0.129 l 1.387,0 z m -121.7228,32.845 3.139,0.7087 3.2769,-3.1127 0.1074,0 c 0.8272,3.0129 1.6418,6.0304 2.4463,9.0493 0.5417,2.0327 1.0797,4.0674 1.5962,6.1067 0.2753,1.0873 0.6559,2.3975 0.8172,3.4999 0.2413,1.6501 0.6001,3.1762 -0.7214,4.4549 -0.5278,0.5108 -1.2498,0.6849 -1.874,0.2639 -2.5151,-1.8085 -5.0343,-3.6119 -7.5622,-5.4022 -1.5256,-1.0806 -3.0538,-2.158 -4.5922,-3.2199 -0.9331,-0.644 -1.9451,-1.3773 -2.9264,-1.9397 -0.7288,-0.4182 -0.0669,-1.719 0.2605,-2.2184 l 6.0327,-8.1905 z m 109.6602,24.0101 c -1.4802,-2.4594 -1.8524,-8.0057 -1.7444,-10.5109 0.047,-1.0885 0.3605,-2.3817 0.6236,-3.4384 0.398,-1.5999 0.8702,-3.1893 1.3629,-4.7622 0.9091,-2.903 1.9049,-5.7955 2.9534,-8.6536 0.5644,-0.112 1.3229,-0.2331 1.7385,-0.2041 0.1363,0.451 0.2888,1.5905 0.3682,1.9287 0.1188,0.5062 0.2849,1.0031 0.5457,1.4553 l 0.0167,0.028 c 0.8992,1.4599 3.1646,1.5713 4.8056,1.3397 0.7061,0.5357 1.4346,1.2744 1.9644,1.9009 1.4207,1.6795 2.3981,3.6703 2.6158,5.8779 0.2622,2.6575 -4.6687,7.1994 -6.4857,8.7718 -1.8703,1.6183 -3.8752,3.149 -5.9295,4.5267 -0.5088,0.3413 -1.9122,1.277 -2.8352,1.7402"
       style="fill:#ffffff;fill-opacity:1;fill-rule:evenodd;stroke:none"
       id="path5269"
       inkscape:connector-curvature="0" /><path
       d="m 362.3519,183.8262 c -4.5502,6.9562 -5.0953,13.6942 -10.2348,24.2152 -4.9297,10.0914 -14.7571,40.0522 -24.743,51.6498 -0.5811,0.686 -2.4273,4.432 -4.2741,6.6481 -1.5296,1.846 -3.007,2.6371 -4.0623,-0.739 -1.3714,-4.2729 -3.2182,-6.9638 -4.5899,-9.3909 -1.3187,-2.427 -6.7,-10.4992 -7.5441,-12.9259 -0.7914,-2.4271 -6.7006,-15.3522 -8.3356,-18.5701 -1.5828,-3.219 -12.0818,-27.6982 -12.609,-31.4971 -0.5809,-3.7449 -4.0624,-12.8727 -6.4894,-16.1434 -2.427,-3.2184 -6.1727,-4.8013 -8.3356,-6.1727 -2.1634,-1.3192 -9.655,-6.1727 -12.0818,-8.0719 -2.4267,-1.8992 -8.2831,-4.4317 -9.18,-5.9088 -0.8441,-1.4772 0,-5.8037 1.1084,-7.6502 1.055,-1.8992 5.8558,-6.5945 5.6449,-9.5488 -0.3697,-1.2665 -2.0574,-2.7961 -1.1078,-3.6929 l 2.1628,-2.2689 0.2637,-8.3356 -3.7985,-0.1054 c -2.27,-0.0626 -5.4025,-2.3196 -4.3789,-5.6452 0.4447,-1.4448 4.2208,-3.4821 7.3859,-4.1681 1.8468,-0.369 3.9572,-0.2636 7.0696,-0.0527 0,0 0.1055,-0.8441 0.3169,-2.1101 0.2109,-1.5829 0.5273,-3.7984 0.8439,-5.5395 0.5278,-3.113 1.4774,-5.6452 2.5322,-8.1773 1.0553,-2.5852 3.746,-4.5902 5.6452,-5.118 1.8992,-0.5272 5.4867,-0.5272 7.6501,0.7914 2.1102,1.372 12.873,7.7553 16.0382,8.8637 3.113,1.1605 9.9184,4.5898 19.0981,4.8535 9.18,0.2636 17.4631,0.5278 25.2712,-4.8535 7.8077,-5.3813 12.979,-11.0792 17.5158,-11.8179 4.4841,-0.7387 9.074,1.1605 10.9211,2.9015 1.794,1.7413 3.06,5.3289 4.3259,10.2351 0.7381,3.5875 0.1579,8.4943 3.1122,7.3859 1.3189,-0.4745 3.2187,-0.4218 5.0128,-0.0527 3.376,0.686 8.494,4.0626 9.7069,5.1177 1.2132,1.0023 2.6901,3.1651 1.8992,4.2732 -0.8441,1.1081 -5.7512,1.4771 -5.7512,1.4771 0.106,4.3265 -0.9487,6.1203 -3.693,9.2855 l 0.845,8.3355 c 3.7265,4.409 11.3349,10.1571 6.1722,15.8806 -2.427,2.6906 -19.626,16.935 -19.626,16.935 0,0 0,1.6353 -2.4261,3.5345 -2.427,1.8468 -6.3839,4.8011 -7.2811,6.1733 z m -101.1365,-40.6766 -6.489,8.8104 c 0,0 -1.8465,2.7436 0.1054,3.8514 2.0047,1.1605 14.9831,10.499 14.9831,10.499 0,0 1.6883,1.2132 3.3239,-0.3697 1.6356,-1.5823 1.3714,-3.2706 1.0551,-5.434 -0.3164,-2.1628 -5.1174,-19.6257 -5.1174,-19.6257 l -1.4244,0 -3.1658,3.007 -3.2709,-0.7384 z m 109.7365,26.6428 c 2.0041,-0.3696 17.3571,-10.9207 16.776,-16.5135 -0.5269,-5.6449 -5.434,-8.8631 -5.434,-8.8631 0,0 -3.2697,0.6333 -4.1148,-0.7387 -0.7911,-1.3714 -0.475,-3.5348 -1.3192,-3.8511 -0.8969,-0.3169 -3.1649,0.2636 -3.1649,0.2636 0,0 -5.0119,13.5062 -5.2231,17.7795 -0.1579,4.2732 0.6863,9.9714 2.48,11.9233 z m 8.1241,-68.1103 0,5.9089 -1.4241,0 0,2.8491 5.381,0 0,-2.8491 -1.4238,0 0,-5.9089 -2.5331,0 z m 11.2901,0 -0.316,3.4821 c -0.053,0.2636 -0.053,0.5273 -0.053,0.7915 -0.053,0.2636 -0.053,0.5272 -0.053,0.7908 -0.0522,-0.2636 -0.1052,-0.5272 -0.1579,-0.7908 -0.053,-0.2642 -0.1052,-0.5806 -0.1582,-0.8969 l -0.8439,-3.3767 -1.5301,0 -0.792,3.3767 c -0.1049,0.3163 -0.1579,0.6327 -0.2109,0.8969 -0.0522,0.2636 -0.1052,0.5272 -0.1052,0.7908 0,-0.2636 -0.053,-0.5272 -0.053,-0.7908 0,-0.2642 -0.053,-0.5279 -0.053,-0.7915 l -0.3158,-3.4821 -2.48,0 1.1611,8.758 2.6379,0 0.5269,-2.1634 c 0,-0.0528 0.0531,-0.1582 0.0531,-0.3164 0.2109,-0.8969 0.369,-1.6356 0.422,-2.2161 l 0.053,0 c 0,0.3696 0.0519,0.7387 0.1579,1.1611 0.053,0.4218 0.1579,0.8968 0.3161,1.4241 l 0.5278,2.1107 2.6382,0 1.1081,-8.758 -2.4801,0 z"
       style="fill:#272528;fill-opacity:1;fill-rule:evenodd;stroke:none"
       id="path5271"
       inkscape:connector-curvature="0" /><path
       d="m 343.9919,188.6264 c 0.1582,-9.1267 -11.5537,-17.5153 -22.1051,-17.5153 -10.5514,0 -21.7364,6.9115 -21.5776,18.5703 0.1581,11.6598 10.4984,15.5109 21.6303,15.5109 11.0786,-0.0518 21.8415,-7.3859 22.0524,-16.5659"
       style="fill:#e31f25;fill-opacity:1;fill-rule:evenodd;stroke:none"
       id="path5273"
       inkscape:connector-curvature="0" /><path
       d="m 289.652,189.6814 c 0,0 -7.7026,-21.6827 -9.2854,-26.9058 -1.5302,-5.2759 -6.4891,-21.5255 -7.8611,-28.5945 -1.3714,-7.0696 -3.1124,-21.2619 -2.3212,-25.9572 0.7387,-4.748 1.3189,-9.2854 4.4314,-9.9708 3.113,-0.7387 6.8059,2.374 10.4989,4.1678 3.6405,1.8464 13.2421,7.1223 18.0961,8.6519 4.8535,1.5828 11.8176,3.2184 20.4698,2.7433 8.6525,-0.5272 19.0985,-5.4867 23.7935,-8.441 4.0102,-2.5325 16.0911,-14.9831 21.314,-4.2208 1.5831,3.2712 2.533,14.0338 2.0579,23.5829 -0.4218,9.5493 -6.753,36.0337 -8.9158,45.3716 -2.1101,9.3379 -7.0702,19.9426 -7.0702,19.9426 l -7.1747,0.1049 c -0.0522,0 -0.3691,-7.9132 -3.7982,-12.0813 -3.4821,-4.2205 -10.4459,-10.3405 -21.6309,-10.2345 -11.2376,0.1055 -17.5158,5.1698 -20.6283,8.5467 -3.1657,3.3237 -5.0649,9.8122 -4.6953,13.8751 0,0.053 -6.1202,-0.4748 -7.2805,-0.5809"
       style="fill:#ffffff;fill-opacity:1;fill-rule:evenodd;stroke:none"
       id="path5275"
       inkscape:connector-curvature="0" /><path
       d="m 313.2873,191.6872 c 3.5875,2.3211 5.4343,5.908 4.0093,8.0711 -1.3714,2.111 -5.3813,1.952 -9.0215,-0.369 -3.5875,-2.321 -5.434,-5.961 -4.0621,-8.072 1.3714,-2.1631 5.4341,-2.0049 9.0743,0.3699"
       style="fill:#b496a1;fill-opacity:1;fill-rule:evenodd;stroke:none"
       id="path5277"
       inkscape:connector-curvature="0" /><path
       d="m 312.8122,192.3724 c 2.9549,1.8989 4.4844,4.854 3.3242,6.6481 -1.1081,1.7407 -4.432,1.5828 -7.3862,-0.3172 -3.007,-1.899 -4.4844,-4.9059 -3.3767,-6.647 1.1605,-1.741 4.4845,-1.6359 7.4387,0.3161"
       style="fill:#ffffff;fill-opacity:1;fill-rule:evenodd;stroke:none"
       id="path5279"
       inkscape:connector-curvature="0" /><path
       d="m 316.9278,177.5475 c 1.7938,-7.3333 12.9252,-3.4821 17.5153,-0.6857 4.5899,2.8491 5.487,9.7605 3.9569,12.1875 -3.4821,5.5389 -9.0748,-1.2671 -12.24,-3.2709 -3.1654,-2.0579 -10.5514,-2.9548 -9.2322,-8.2309"
       style="fill:#922521;fill-opacity:1;fill-rule:evenodd;stroke:none"
       id="path5281"
       inkscape:connector-curvature="0" /><path
       d="m 351.4311,189.9984 -3.7459,0.053 c -0.0522,0 -0.3691,-7.9141 -3.7982,-12.0816 -3.4821,-4.168 -10.4459,-10.288 -21.6309,-10.2353 -5.1174,0.0527 -9.1797,1.1611 -12.3981,2.5852 4.5898,-2.9543 10.235,-4.5371 15.775,-4.5371 12.5561,0 26.4841,9.9711 26.273,20.8397 -0.0531,1.1599 -0.2109,2.268 -0.4749,3.3761"
       style="fill:#c7c7c8;fill-opacity:1;fill-rule:evenodd;stroke:none"
       id="path5283"
       inkscape:connector-curvature="0" /><path
       d="m 79.5739,207.4416 -17.2534,0 0,-50.2109 c 0,-5.8615 -0.1105,-14.8201 -8.1842,-14.8201 -3.7601,0 -7.2992,3.0969 -7.7417,6.857 l -15.8153,-3.8707 c 2.5438,-12.4974 11.6127,-18.2486 23.9995,-18.2486 21.2346,0 24.9951,13.714 24.9951,28.2022 l 0,52.0911 z"
       style="fill:#2b2b2a;fill-opacity:1;fill-rule:nonzero;stroke:none"
       id="path5285"
       inkscape:connector-curvature="0" /><path
       d="m 158.4295,207.4416 -17.2531,0 0,-47.446 c 0,-9.6219 -6.6359,-16.9214 -15.7048,-16.9214 -9.1797,0 -15.8153,7.2995 -15.8153,16.9214 l 0,47.446 -17.2531,0 0,-48.1096 c 0,-18.4697 11.2808,-32.1837 33.0684,-32.1837 21.6771,0 32.9579,13.714 32.9579,32.1837 l 0,48.1096 z"
       style="fill:#2b2b2a;fill-opacity:1;fill-rule:nonzero;stroke:none"
       id="path5287"
       inkscape:connector-curvature="0" /><path
       d="m 241.1558,175.5899 -30.6352,0 0,-15.9259 14.0457,0 0,-12.7188 c -3.2074,-1.7697 -8.7372,-3.871 -16.2578,-3.871 -14.7093,0 -24.3312,10.6175 -24.3312,25.2162 0,14.599 9.6219,25.2161 24.3312,25.2161 8.7372,0 14.3776,-2.5438 19.0227,-7.41 l 12.1657,13.2718 c -7.8525,7.2992 -18.8016,10.0641 -31.1884,10.0641 -24.4418,0 -42.2479,-16.0364 -42.2479,-41.142 0,-25.1054 17.8061,-41.1421 42.2479,-41.1421 11.5021,0 22.6723,2.2119 32.8473,7.5206 l 0,40.921 z"
       style="fill:#2b2b2a;fill-opacity:1;fill-rule:nonzero;stroke:none"
       id="path5289"
       inkscape:connector-curvature="0" /><path
       d="m 32.9995,94.0861 8.936,0 c 7.3941,0 13.947,4.3104 13.947,12.335 0,9.0763 -6.6932,12.4756 -14.6829,12.4756 l -8.2001,0 0,-24.8106 z m 5.4666,19.7643 3.2242,0 c 4.6255,0 8.5152,-2.2779 8.5152,-7.149 0,-5.6417 -3.8196,-7.569 -8.9007,-7.569 l -2.8387,0 0,14.718 z"
       style="fill:#2b2b2a;fill-opacity:1;fill-rule:nonzero;stroke:none"
       id="path5291"
       inkscape:connector-curvature="0" /><path
       d="m 56.408,94.0861 6.0276,0 2.0676,5.2563 9.6367,0 2.1376,-5.2563 6.1676,0 -10.7932,24.8106 -4.5207,0 L 56.408,94.0861 Z m 15.8746,9.8822 -6.0624,0 3.0138,7.7094 3.0486,-7.7094 z"
       style="fill:#2b2b2a;fill-opacity:1;fill-rule:nonzero;stroke:none"
       id="path5293"
       inkscape:connector-curvature="0" /><path
       d="m 83.6362,94.0861 5.4666,0 0,9.917 2.6983,0 5.1866,-9.917 6.5528,0 -6.3076,10.4777 c 3.5042,0.631 5.3614,3.3293 5.3614,6.7984 0,5.7821 -4.2752,7.5345 -9.3563,7.5345 l -9.6018,0 0,-24.8106 z m 5.4666,20.1847 3.5745,0 c 1.9973,0 4.2401,-0.3855 4.2401,-2.8735 0,-2.6983 -2.5931,-2.7683 -4.5904,-2.7683 l -3.2242,0 0,5.6418 z"
       style="fill:#2b2b2a;fill-opacity:1;fill-rule:nonzero;stroke:none"
       id="path5295"
       inkscape:connector-curvature="0" /><path
       d="m 105.0471,94.0861 5.4667,0 0,19.0285 0.07,0 6.2728,-19.0285 4.17,0 6.518,19.0285 0.0703,0 0,-19.0285 5.4666,0 0,24.8106 -8.2352,0 -5.747,-16.1901 -0.07,0 -5.7121,16.1901 -8.2701,0 0,-24.8106 z"
       style="fill:#2b2b2a;fill-opacity:1;fill-rule:nonzero;stroke:none"
       id="path5297"
       inkscape:connector-curvature="0" /><path
       d="m 152.8104,116.9342 c -2.1028,1.8573 -4.8011,2.5932 -7.6043,2.5932 -4.871,0 -9.4617,-2.7683 -9.4617,-8.0601 0,-8.27 11.6342,-5.8169 11.6342,-10.3725 0,-1.7524 -1.9973,-2.5934 -3.7845,-2.5934 -1.8224,0 -3.6445,0.8762 -4.7659,2.3479 l -3.8897,-4.2752 c 2.3479,-2.1727 5.1511,-3.1187 8.3401,-3.1187 5.1162,0 9.5669,2.628 9.5669,8.1649 0,8.6908 -11.4242,5.7822 -11.4242,10.3026 0,1.8572 2.1376,2.5582 3.6797,2.5582 1.3314,0 3.0838,-0.5255 3.9597,-1.6469 l 3.7497,4.1 z"
       style="fill:#2b2b2a;fill-opacity:1;fill-rule:nonzero;stroke:none"
       id="path5299"
       inkscape:connector-curvature="0" /><path
       d="m 161.0802,94.0861 5.4669,0 0,19.9744 7.0786,0 0,4.8362 -19.6242,0 0,-4.8362 7.0787,0 0,-19.9744 z"
       style="fill:#2b2b2a;fill-opacity:1;fill-rule:nonzero;stroke:none"
       id="path5301"
       inkscape:connector-curvature="0" /><path
       d="m 170.6119,94.0861 6.0276,0 2.0676,5.2563 9.6367,0 2.1376,-5.2563 6.1676,0 -10.7932,24.8106 -4.5207,0 -10.7232,-24.8106 z m 15.8746,9.8822 -6.0624,0 3.0138,7.7094 3.0486,-7.7094 z"
       style="fill:#2b2b2a;fill-opacity:1;fill-rule:nonzero;stroke:none"
       id="path5303"
       inkscape:connector-curvature="0" /><path
       d="m 197.8404,94.0861 8.9359,0 c 7.3942,0 13.9471,4.3104 13.9471,12.335 0,9.0763 -6.6932,12.4756 -14.6829,12.4756 l -8.2001,0 0,-24.8106 z m 5.4666,19.7643 3.2241,0 c 4.6256,0 8.5153,-2.2779 8.5153,-7.149 0,-5.6417 -3.8197,-7.569 -8.9008,-7.569 l -2.8386,0 0,14.718 z"
       style="fill:#2b2b2a;fill-opacity:1;fill-rule:nonzero;stroke:none"
       id="path5305"
       inkscape:connector-curvature="0" /><path
       d="m 228.6082,94.0861 5.4666,0 0,19.9744 7.0787,0 0,4.8362 -19.624,0 0,-4.8362 7.0787,0 0,-19.9744 z"
       style="fill:#2b2b2a;fill-opacity:1;fill-rule:nonzero;stroke:none"
       id="path5307"
       inkscape:connector-curvature="0" /></g></svg>